<svg xmlns="http://www.w3.org/2000/svg" xmlns:xlink="http://www.w3.org/1999/xlink" width="578.8" height="524.6" version="1.0"><defs><radialGradient xlink:href="#a" id="b" cx="456.9" cy="590.9" r="25.9" gradientTransform="matrix(-1.0462 .12075 .132 1.1436 589 -363)" gradientUnits="userSpaceOnUse"/><radialGradient xlink:href="#a" id="c" cx="272.3" cy="437.8" r="25.9" gradientTransform="matrix(.77902 .00086 -.00138 1.2503 -22 -180)" gradientUnits="userSpaceOnUse"/><radialGradient xlink:href="#a" id="d" cx="1047.6" cy="505.7" r="25.9" gradientTransform="matrix(-1.0857 -.17487 -.27458 1.1248 1465 -18)" gradientUnits="userSpaceOnUse"/><linearGradient id="a"><stop offset="0" stop-color="#fff"/><stop offset="1" stop-color="#f15770"/></linearGradient></defs><g transform="translate(-102 -244)"><path fill="#a8ac71" d="M268 359s-14 1-24 0-7-27-8-27c0-1-6-7-5-12 1-6 19-20 22-21 1-1 5 1 5 1l6-5c1 0 3 3 2 4l-7 7c0 3 0 6-2 9-1 2-5 6-5 8-1 2-2 4 0 5s8 0 13-2 7-5 7-5-2 6-8 9c-5 2-9 5-12 4 0 0-3 8 7 8 9 0 14-2 14-2l-5 19zM213 417s8 3 8 11-8 15-8 29c0 15 2 15 21 30 1 1 5 5 6 9 1 5 4 32 23 32 18 0 20-11 20-11l-7-12s-7 2-10 1c-4-1-7-3-9-7s-2-15-5-20c-8-11-22-13-22-25s9-14 6-28c-2-14-19-21-19-21l-7-3-2 14 5 1z"/><path fill="#f1a720" d="M264 317c6-2 2-17 2-17l-4 3s3 3 3 7l-1 7z"/><path fill="#a8ac71" d="m275 476-3-3c-3-1-12-9-11-32 2-26 40-40 42-50 3-11 12-16-18-40l-7 8 12 10s3-2 3 2c0 3-4 6-4 9l-21 17-11 8s-5 5-10 15c-4 10-2 23-2 23s0 28 30 33z"/><path fill="#78732e" d="m256 490 2 10-6 2h-2l-2 1-5 5-1-1-1-2v-6l5 2 2 1 2-1 2-5 4-6zM239 492l-3-4-3-3 4-2h4v5l-2 4zM249 476l3 4 3 5-7-1-6-2 4-4 3-2zM246 520l-2-3-2-6 5-1 5 2h2l-1 3-6 4-1 1zM265 505s-5-2-5-4l-1-1-2 5-1 6 4-1 4-3 1-2zM247 522l5 3 5 2 2-3 2-4 1-1-12 1-3 2zM263 518l10-6v-5l-1-1h-6l-2 6-1 6zM257 527s6 3 18-2c5-1 6-4 6-4l-5-2-4 4-15 4zM248 453l-2-5v-4l3 2 5 4-4 2-2 1zM256 467l-4-4-2-4 4 1 4 2-2 5h-1z"/><path fill="#c6c7a6" d="M234 315c0 2-1 6 2 7 2 1 9 0 16-9 4-4 4-8 4-8l2-5s-3-2-8 1c-5 2-16 14-16 14z"/><ellipse cx="693.8" cy="312.5" fill="#1c242f" rx=".9" ry="1" transform="matrix(1.4726 0 0 1.4939 -766 -164)"/><path fill="#a8ac71" d="M246 304c-4 2-7 6-7 6s5-2 10-5c2-3 7-3 9-3v-2l-6-1-6 5z"/><path fill="#78732e" d="m262 451-1-4v-4l-3 2-3 4 5 2h2zM245 441v-8l2-11 2 5 6 8 1 2-4 3-5 2-2-1zM262 439v-4l2-5v1l-5 4-2 2 3 2h2M248 418l4-6 5-7 2 9 1 8v1l-2 1-7-1-3-5zM266 428l3-3 3-4-11 2 1 4 4 1zM259 404l4-4c3-3 4-2 4-2l2 12-6-2-4-4zM274 420l5-6-10-5 2 9zM278 402l1-12-6 3-4 3 1 3 4 2 4 1zM288 390v-10 1l-4 4-3 2 4 3h3zM293 403l5-5 6-6-15-1v6l4 6zM257 360h12l-3-5-3-2-4-3-2 3zM282 412l5-5 5-3-12-2v8l2 2zM305 390l1-9-1-7-9 6 1 5 4 3 4 2z"/><path fill="#78732e" d="m289 379 3-5v-1h12v1l-3 3-4 3-6 1-2-2zM304 372l-5-7-3-4-3 10-1 1h12z"/><path fill="#fff" d="m216 442-1 3s5-2 8-2c4 0 8 4 8 4l1-3s-5-5-8-5-8 3-8 3zm3-21 1 2s0-4 5-6 7 0 7 0-1-3-3-4c-2 0-4 0-7 2l-3 6zm16 16s-2-5-6-6-9 2-9 2l-1 3s5-3 9-2 6 6 6 6l1-3zm-18-19 1 2s-1-5 2-7l4-4-2-1-5 4v6zm-3-8 5-4-1-1-2 1-3 3-1 7 2 2 1-8zm29-69c3-2 5-1 5-1s-4 4-2 10c-3 5-3 9-3 9h2l2-7c2 5 7 8 7 8l3-1 2-9v1c4 4 8 5 8 5v-1l-7-6c3-5 7-6 7-6l2 2 1-1-2-2h-2l-7 6-3-6-1-1s-4 1-8 7c0-5 5-9 5-9l-1-2-8 2c-4 1-6 5-6 5v2l6-5zm5 8c2-4 7-6 7-6l3 6-3 8-7-7v-1zm-27 76v3s3-3 7-3c5 0 8 3 8 3v-4c-1-1-4-3-8-3s-7 4-7 4zm77-41-1-3 2-1 6-6-1-2h-6l-5-1 2-6 2-5-2-2s0 2-4 3l-10-3v1l9 3 5-1-2 5-1 3 1 1-1 3h5l7 1-7 5h-1l-4-6v2l3 4h-6l-1 2v9l-7-3-1 1-1 1-1 12c-6-1-9-5-9-5l-2 2s-1 5 1 11c-5-1-9-5-9-5l-2 1 2 16v2h-2c-5 0-9-5-9-5l-1 3s2 10 7 15l2 1c-5 4-11 4-11 4l1 3 6 5 1 1-6 3 1 2 7-4 7 1v-1l-6-2 5-6 1-4-5-2c7-5 7-7 7-7l2-2-4-4 10-3 1-1s-3-4-4-9l11 2 2-1-2-9 12 1 1-1s-4-7-4-11h15l1-2-7-6zm-38 57-5 7-1 1-1-1c-4-2-5-5-5-5l9-6 3 4zm3-12-7 7-1-2c-3-4-7-7-7-13 0 0 3 4 8 4l4-1c1 4 3 5 3 5zm8-9-10 2v-1c-2-6-2-15-2-15l9 5 3 9zm-2-11v-10s3 3 9 4l1 7-10-1zm21-8s-3 2-10 1v-13l8 2v1c0 5 2 9 2 9zm0-11h-1l1-10 5 1 2 4 4 5h-11zm-28 67v-2l-4 5h-1l-8-3 1 2 7 3-2 5 1 1 2-6h5l-1 3-2 5 2 1 8 1-2-2h-6l1-5 1-2-1-3-4 1 3-4zm-41-4c5 0 9 3 9 3v-2s-4-5-8-5-9 4-9 4v5s4-5 8-5zm49 70-10 2 3-5c9-3 11-9 11-9l-1-2s-2 5-10 8l3-11-2-1s-4 4-7 6l2-10-1-2-6 3h-2l6-12-1-1-6 11-1 1c-3 0-8-3-8-3l1 1 6 3-5 5v4l11 1-7 8 2 2 13-2-4 7s8 0 13-3c6-2 7-5 7-5l-1-2s-2 4-6 6zm-25-15 4-5h7s1 3-2 8c-4 0-9-3-9-3zm5 11 5-5 1-2c5 0 8-4 8-4s1 4-2 10c-7 2-12 1-12 1zm-7-35c5 0 12 3 12 3l-1-3-10-2c1-4 5-6 5-6l-1-1s-3 0-5 5l-1 2-1-1c-5 0-9 3-9 3l1 2 8-2-3 8 1 3 4-11zm-11-22-1-3s-6-2-10 0-7 7-7 7l2 3s3-5 6-7h10zm11 8-4-2s-6 2-8 4-4 8-3 9c0 2 2 3 2 3s1-6 4-9 9-5 9-5zm-14-2c2-2 7-3 7-3l-2-2s-6 1-9 3l-6 8 3 3 7-9zm19-162c3-4 5-4 6-3h2v-1l1 1-3 8c-1 4-3 5-4 7-1 3-4 7-4 11l2 6 2-3h-1l-1-3c-1-2 2-8 3-10s4-4 4-8l2-9-4-1c-3 0-6 2-7 5l-6 4s5 0 8-4z"/><path fill="#78732e" d="M265 342h-9l3 8zM255 341l-2-1-1-1-4 2-1 7 1 1 7-8zM254 360l-7-10-4 8 2 1h5l4 1zM280 522c-2 1-8 5-17 5l-12-3c-3-2-5-4-6-7l-4-14c-1-5-1-10-4-13-3-5-8-8-13-12a27 27 0 0 1-11-22c0-6 2-12 4-16 2-5 5-9 5-13l-1-2c0-3-3-5-5-7l-4-3-4-1v2l3 1v-1 1l5 3c2 1 4 3 4 5v2l-4 12a43 43 0 0 0-4 20c1 10 6 15 11 20 5 4 11 7 13 11 3 5 4 11 5 18l3 10c1 3 3 5 6 7 4 2 9 3 13 3 10 0 18-5 18-5l-1-1z"/><path fill="#78732e" d="M273 504h-1l-4 1-6-3c-3-2-4-5-5-8l-3-12c-2-5-8-9-13-13s-9-8-10-13l-1-2c0-4 2-7 4-12a39 39 0 0 0 3-17c-1-7-7-12-12-16s-10-5-10-5v1l12 6c4 4 8 8 9 14v3c0 5-2 10-3 14-2 4-4 8-4 12l1 3c1 5 6 8 11 13 5 4 10 8 12 12l3 12c1 3 2 6 5 9a10 10 0 0 0 12 2v-1z"/><path fill="#a8ac71" d="M306 476s6 2 6 7-3 12-3 12l-9-8 5-4 2-3-1-4z"/><path fill="#f8c83c" d="M197 414s-6 3-7 0l-1-6s-4 0-4-4c1-4 5-3 6-3s1-6 5-6c3 1 4 4 4 4l-3 15z"/><path fill="#977c2e" d="m197 414-4 1-2-1h-1l-1-4v-2l-1-1-1-1-1-2 2-2 3-1h1l1-2 1-2 1-1h1l3 2 1 1-3 15 1 1 3-16-1-2-4-2h-1l-2 1-1 3-1 1-4 1c-1 0-2 1-2 3l2 4h1v1l1-1h-1v1l1-1h-1v2l1 4 2 1 2 1 4-1h1l-1-1z"/><path fill="#f8c83c" d="M204 416s-5 3-7 0v-6c-1-1-4-2-4-5 1-3 4-2 5-3 2 0 2-5 6-4s4 3 4 3l-4 15z"/><path fill="#977c2e" d="M204 416h-1l-3 1-2-1-1-3v-4h-1l-1-1-1-2v-1l1-1 2-1h2l1-2 1-2 2-1h1l3 2v1h1-1l-1 7-2 8h1l2-8 1-7-1-2a6 6 0 0 0-4-2l-2 1-2 2v1l-1 1h-3l-2 3v1l1 3a14 14 0 0 0 2 1v3l1 3c0 2 2 2 3 2l4-1v-1h1-1z"/><path fill="#f8c83c" d="M213 417s-2 4-5 3c-4-1-3-6-3-7-1-1-4-2-3-5 0-4 4-3 5-4s3-6 5-5c3 1 5 4 4 6 0 0-5 1-6 5 0 3 3 7 3 7z"/><path fill="#977c2e" d="m213 417-1 1-3 2-1-1-2-1-1-3v-2l-2-2-1-3 1-2 2-1h2l1-2 2-2 1-1h1l3 2 1 2v1-1l-3 1c-1 1-3 3-3 5v1c0 3 3 7 3 7v-1l-2-6v-1c0-2 2-3 3-4l2-1h1v-1l-2-3-3-2h-2l-2 3-1 1v1h-1l-3 1c-1 0-2 1-2 3l2 4 1 1 1 4 1 2 2 1h1l3-1 1-2h1-1z"/><path fill="#af7029" d="m296 475-8-10-8-10-8-4-5-8-1-10 2-6 3-4s-16 6-8 38c4 13 13 15 13 15l15-1h5z"/><path fill="#816c2a" d="m289 368 2 1 1 3v1c-6 12-17 18-28 26-5 3-10 8-14 14a43 43 0 0 0-6 24c1 19 8 29 15 34 8 5 16 6 19 6h2l5-1a133 133 0 0 1 17 0l4 1v2l-2 4-3 3v1l4-3 2-5-1-2-4-2-6-1-16 2h-2c-3 0-11-1-18-6s-14-14-15-33v-1c0-10 3-17 6-23 5-8 14-14 22-19s16-11 20-21v-1l-1-3-3-2v1z"/><path fill="#fff" d="m311 480-5 7 5 3-1 2s-5-3-8-3v-3l4-2 3-6 2 2z"/><path fill="#fcca3d" d="m327 485-10 3-5-4s0-4-2-5l-6-4-9-1-18-19 7 1 10-1 10-1h5l6 2 3 3 3 2 3 5 2 6 1 6v7z"/><path fill="#af7029" d="m327 484-8 1-7-1-1 4-2 4v12l10 2 5-2 2-13 1-7z"/><path fill="#fcca3d" d="m324 479 1 5h2v-3zM315 371l-1-8-3-5-4-6-4-4-2-2-1-2-11 1-5 6s14 10 19 21c5 1 9 4 11 6v-1l1-6z"/><path fill="#af7029" d="M305 380c0 8-1 12-2 13l6-7 5-8c-2-2-6-5-11-6 2 2 2 5 2 8z"/><path fill="#816c2a" d="m320 499-5-6-5-3v1l4 3a59 59 0 0 1 5 6l1-1z"/><path fill="#6f5b24" d="M326 490s-1 4-4 7l-8 5 10 4 6-6-4-10z"/><path fill="#404118" d="m327 493 1 3v3l-1 1-2 2-1 1z"/><path fill="#fcca3e" d="m521 686 1 16 6-4-4-14z"/><path fill="#aa8c30" d="M521 686v16l7-4-4-14-3 2h1l5 12-5 3-1-15z"/><path fill="#fcca3e" d="M526 681c0 3-3 5-6 5s-5-2-5-5 2-5 5-5 6 3 6 5z"/><path fill="#aa8c30" d="M526 681h-1c0 3-2 5-5 5-2 0-5-2-5-5 0-2 3-4 5-4 3 0 5 2 5 4h1c0-3-3-5-6-5s-5 2-5 5 2 6 5 6 6-3 6-6z"/><path fill="#aa8c30" d="m524 687-2 2-1 3v-5l2-1 1 1zM525 684s-1 2-4 2l-5-3 1-5-2 2v3l2 3h6l2-2z"/><path fill="#fcca3e" d="m540 711-12-12-4 5 16 10z"/><path fill="#aa8c30" d="m540 711-12-12-6 5 18 10 2-3h-2l-1 2-15-9 4-3 12 10z"/><path fill="#fcca3e" d="M539 717c-1-2-1-5 2-7 2-2 5-1 7 1s1 5-1 7c-3 2-6 2-8-1z"/><path fill="#aa8c30" d="M539 717h1l-1-3a5 5 0 0 1 5-5 4 4 0 0 1 5 5 5 5 0 0 1-6 5l-3-2h-1v1l4 2a6 6 0 0 0 6-6 5 5 0 0 0-5-6l-4 2-2 4 1 4v-1z"/><path fill="#aa8c30" d="m540 710-3 1-12-7 14 9 1-3zM549 714s-1 3-3 4-5 0-6-1l-1-4-1 2 2 3 3 1h2l1-1 2-1 1-2v-1z"/><path fill="#fcca3e" d="m631 541 12 13 2-7-11-8z"/><path fill="#aa8c30" d="M631 541v1l14 12 1-7-12-8-3 2v1-1 1l3-1 11 7-2 5-12-12v1z"/><path fill="#fcca3e" d="M635 538c0 3-2 5-5 5s-5-2-5-5 2-5 5-5 5 2 5 5z"/><path fill="#aa8c30" d="M635 538c0 3-2 5-5 5s-5-2-5-5 2-4 5-4 5 2 5 4h1c0-3-3-5-6-5s-5 2-5 5 2 6 5 6 6-3 6-6h-1z"/><path fill="#aa8c30" d="M636 542v4l-3-4 2-2 1 2z"/><path fill="#aa8c30" d="M635 538c0 2-3 5-6 4s-4-4-3-6l-1 1 1 4 2 2h3l3-1 1-3v-1z"/><path fill="#fcca3e" d="m664 548-19 6 1-6 16-1z"/><path fill="#aa8c30" d="m664 548-18 5 2-5 14-1 2 1-2-3-16 2-1 7 19-6z"/><path fill="#fcca3e" d="M672 546c0 3-3 5-5 5-3 0-5-2-5-5s2-5 5-5c2 0 5 2 5 5z"/><path fill="#aa8c30" d="M672 546h-1c0 3-2 5-4 5-3 0-5-2-5-5s2-5 5-5c2 0 4 2 4 5h1c0-3-2-5-5-5s-6 2-6 5 3 5 6 5 5-2 5-5z"/><path fill="#aa8c30" d="M671 544s0-2 0 0-2 6-5 6c-3-1-4-3-4-5 1-3 0 0 0 0v3l2 2 2 1h2l3-2 1-2v-1l-1-2z"/><path fill="#aa8c30" d="m659 547-2 2-5 3 11-3-1-3-3 1z"/><path fill="#fcca3e" d="m602 641-12-18 2-2 13 15z"/><path fill="#aa8c30" d="M602 641v-2l-12-16 2-2 11 15-3 3 2 2v-2 2l3-5-13-15-3 2 13 18z"/><circle cx="920.1" cy="524" r="3.6" fill="#fcca3e" transform="matrix(1.4726 0 0 1.4939 -766 -164)"/><path fill="#aa8c30" d="M594 618c0 3-3 5-5 5s-5-2-5-5 2-5 5-5 5 3 5 5c0-3-2-5-5-5s-6 2-6 5 3 6 6 6 5-2 5-6z"/><path fill="#aa8c30" d="m597 628-1 2 1 3-6-9 2-2 4 6zM594 619c-1 3-5 4-7 3s-4-5-2-7l-1 1-1 2 1 3 2 2 2 1 3-1 2-2 1-2z"/><path fill="#fcca3e" d="m602 641 15 3v-3l-12-5z"/><path fill="#aa8c30" d="m602 641 15 3 1-3-13-5-5 5h2l3-5 12 5v1l-15-1z"/><path fill="#fcca3e" d="M626 643c0 3-2 6-5 6s-5-3-5-6 2-5 5-5 5 2 5 5z"/><path fill="#aa8c30" d="M626 643c0 3-3 5-5 5-3 0-5-2-5-5 0-2 2-4 5-4 2 0 5 2 5 4 0-3-2-5-5-5s-6 2-6 5c0 4 3 6 6 6s5-2 5-6z"/><path fill="#aa8c30" d="m614 640-2 1h-6l10 2v-2l-2-1z"/><path fill="#aa8c30" d="M626 642c0 4-2 7-6 6-4-2-5-5-3-7l-1 2v3l3 2 2 1 2-1 2-2 1-3v-1z"/><path fill="#9ca168" d="M681 507c-1 14-15 21-22 26-7 6-11 12-11 12l-2 8-2 5v2l1 8v15l10-7 7-2 2-1s-8 8-11 16-9 26-19 32c-11 6-17 3-21 7l-4 3-4 7-4 4-3 3-2 1-1 6-3 9 5-2h5l-3 5c0 2 1 17-13 25-13 9-48 7-48 7l-7 3-6 5-6 6v1l-7 8-10 6 8 1 12 5s-8 0-13 2-30 16-41 16c-12-1-29-18-29-18l-7-5-13-3-16-1 1-2v-2h14c7 1 9 4 15 4 7 1 11 0 13-1 3-1 21-17 21-17l22-7 8 1 3 1 4 1-4 4-5 3 2 2 14-2 4 1 1 1 2-4 13-11 5-3 5-13 1-6 15-14 10-10 4-13v-2s3 4 2 11l-2 10s10-7 16-9l8-2c2 0 6-3 8-6l4-8v-10l-1-25 9-20 13-11 2-1-1 4v5l9-10 2-1 3-7 1-11v-11l-2-8-6-16v-21l-4-6s4 0 9 7 7 18 7 18l12-37s3 5 5 12c3 7 3 12 3 12l5-10 1 4c0 3 8 7 7 21zM437 743s-2-6-14-12c-11-5-20-6-20-6v4l18 8 9 7 7-1z"/><path fill="#717732" d="M520 708c1-1 10-10 15-13l12-3c7-1 8 0 24-9 16-8 19-19 22-21l9-3-12 14c-6 7-12 11-21 17s-28 6-28 6c-8 2-10 4-15 7l-7 8s-1-1 1-3zm43-46c-14 14-19 26-19 26l20-18c6-6 16-9 20-13l7-10 5-4s-7-5-33 19zm-31 31s7-3 9-8l4-10 20-21c10-12 6-21 6-21s1 5-3 10-24 18-27 26l-2 12c-2 10-7 12-7 12zm-10 38s-7-5-16-4c-18 1-32 12-44 12s-16-6-25-12c-10-6-33-5-33-5h-1v1s17 0 23 2c14 4 21 18 36 17 19-1 35-13 43-13 14 0 17 2 17 2zm-87-9s14 3 24-5c11-8 23-18 30-19l15 2s-9-4-16-4-14 1-21 5-10 11-17 16c-7 4-15 5-15 5zm-2 19-5 1c-1 0-5-5-11-8l-14-5s-1 1 1 1l13 5 10 8c0 1 2 3 6 3 3 0 4-2 4-3 0-2-2-2-4-2zm9-13s6 3 15 2c19 0 31-13 43-18 13-5 19-1 19-1v-1c-2-1-8-4-14-4-21 0-41 14-49 17-8 4-14 5-14 5zm203-145c-7 7-16 28-20 34s-10 7-12 10l-12 15c-1 2-2 1-3 2-1 2-2 2 0 1l6-5c3-4 3-6 8-10l19-15c5-5 13-27 18-33 6-5 15-9 15-9s-7-2-19 10zm-33 40s0-3 5-9 6-5 10-13 5-16 8-25 9-17 9-17-5 0-10 7-13 19-17 31c-5 12-5 26-5 26zm-6 8s2-1 2-11c1-11 0-26 3-33 3-8 19-25 19-25s-7 1-16 9c-9 7-13 17-13 24s4 15 5 22v14zm38-73 6-18c2-3 2-5 10-14 5-6 9-9 11-16 2-8 2-28 2-28l-4 6c-1 3 0 16-3 23-3 6-10 20-14 23l1-21c1-10 5-13 6-20 2-7 1-25 1-25s-6 6-8 13c-3 6-5 18-5 27l2 21c1 5 1 8-1 13l-2 8-3 9 1-1zm-12-78s5 6 4 13-4 17-1 24 7 8 8 12l1 13s3-16 1-20c-2-5-2-3-5-7-2-5 0-17-1-24-2-8-7-11-7-11z"/><path fill="#fcca3e" d="M263 681c0 2-2 4-4 4-1 0-3-2-3-4 0-3 2-5 3-5 2 0 4 2 4 5z"/><path fill="#aa8c30" d="m263 681-1 3-3 1-2-2v-5l2-2 3 2 1 3h1l-2-4-3-1-2 1-1 4 1 3 2 1c3 0 5-2 5-4h-1z"/><path fill="#fcca3e" d="m263 689 3 18-4-2-2-15z"/><path fill="#aa8c30" d="m263 689 3 18-3-2-1-15 1-1h-3l2 16 6 3-5-19z"/><path fill="#fcca3e" d="M267 683c2 2-1 7-5 8s-9-1-9-5c1-4 6-1 8-2s4-4 6-1z"/><path fill="#aa8c30" d="M267 683v2l-1 3-4 2a8 8 0 0 1-6-1l-2-2v-1l1-1 2-1 3 1h1l2-2 2-1 2 1 1-1-3-1-2 1-3 2h-6l-1 2v1l2 3 5 1h2l4-2 2-4v-3l-1 1z"/><path fill="#aa8c30" d="M267 683c1 1-1 5-5 7-4 1-6 0-7-2l-1-2h-1l1 2 2 2 4 1 2-1 3-1 2-1 1-2v-2l-1-1zM263 692l-1 1-1 3v-5l2-1v2z"/><path fill="#fcca3e" d="M241 710c0 3-2 5-5 5s-6-2-6-5c0-2 3-4 6-4s5 2 5 4z"/><path fill="#aa8c30" d="m241 710-2 3-3 1-4-1-2-3 2-2 4-1 3 1 2 2h1l-2-3-4-1-5 1c-2 1-1 2-1 3l1 4 5 1 4-1 2-4h-1z"/><path fill="#fcca3e" d="m246 710 17-2-3-3-14 2z"/><path fill="#aa8c30" d="M246 710h17l-3-5-14 2-2 3h2v-3l13-2 3 3-16 2z"/><path fill="#fcca3e" d="M247 707c1 5 1 11-4 10-5 0-4-5-4-7-1-3-4-5-1-8s7 1 9 5z"/><path fill="#aa8c30" d="m247 707-1 1 1 5-1 3-2 1h-1l-2-1-1-3-1-3-2-6 2-2 1-1 4 2 2 5 1-1-3-5-4-2-2 1-1 3 2 7v3l1 2 3 2h1l3-2 1-3-1-6z"/><path fill="#aa8c30" d="M250 706v2l4 1h-7v-2l3-1zM247 711v2c-1 2-1 4-4 3-2 0-3-2-3-4l-1-2v2l1 4 3 1h2l2-1v-2l1-2-1-1zM230 710s1 3 5 3l4-1v2h-7l-1-1-1-2v-1z"/><ellipse cx="649.3" cy="520" fill="#fcca3e" rx="2.3" ry="3.5" transform="matrix(1.4726 0 0 1.4939 -766 -164)"/><path fill="#aa8c30" d="m193 612-1 4-2 1-2-1-1-4 1-3 2-1 2 1 1 3h1l-1-3-3-2c-1 0-2 0-3 2l-1 3 1 4 3 2 3-2 1-4h-1z"/><path fill="#fcca3e" d="m190 624 1 17-4-5v-13z"/><path fill="#aa8c30" d="M190 624v15l-3-3v-12h3v-1h-5v13l6 6v-19h-1z"/><path fill="#fcca3e" d="M197 619c0 4-5 6-9 5s-7-3-6-6c0-4 5-3 7-2 1 1 6-3 8 3z"/><path fill="#aa8c30" d="M197 619h-1v1l-2 3a10 10 0 0 1-6 1l-4-2a4 4 0 0 1-2-4l1-2h5l1 1 4-1 2 1 1 2h1c0-2-1-3-2-3l-2-1-4 1-4-1h-2l-2 3v1l2 4a11 11 0 0 0 6 2l5-2c2 0 3-2 3-3v-1z"/><path fill="#aa8c30" d="M196 618v2c0 1-2 3-6 3s-6-1-7-2l-1-3v2l1 2 4 2h4l4-1 1-2 1-2-1-1zM190 626l-2 1-2 2v-5h4v2z"/><path fill="#fcca3e" d="m166 639-6 2-6-2c0-2 3-3 6-3s6 1 6 3z"/><path fill="#aa8c30" d="M166 639h-1c0 1-2 2-5 2l-4-1-1-1v-1l5-2 4 1 1 1 1 1h1l-1-2-6-1h-4l-1 1-1 2 1 1 5 2 5-1 1-1 1-1h-1z"/><path fill="#fcca3e" d="m170 639 14-1 6 4-20-1z"/><path fill="#aa8c30" d="m170 639 14-1 4 4-18-1 2-2h-2v3h21l-7-4h-14v1z"/><path fill="#fcca3e" d="M166 632c4 0 6 4 5 8 0 4-3 7-7 7-3-1-3-3-3-4l3-4-1-6 3-1z"/><path fill="#aa8c30" d="m166 632 4 2a8 8 0 0 1 1 6c0 4-3 7-6 7v-1l-3-1v-3l1-1 1-2-1-5v-1l1-1h2v-1l-2 1-1 1v6l-1 2-1 1v1l1 3 2 1h1c3 0 6-3 7-7v-1l-2-5c-1-2-2-3-4-3v1z"/><path fill="#aa8c30" d="m173 639 2 1 11 2h-15l1-3h1zM171 639v2c-1 2-3 6-6 5s-3-3-3-3v-1l-1 2 1 2 1 1h3l2-1 2-2 1-2v-3zM163 639l-2 1-6-1 1 2h6l1-2z"/><path fill="#fcca3e" d="M155 529c-1 2-4 4-5 3-2-1-1-4 0-6 2-3 4-4 5-3 2 1 2 4 0 6z"/><path fill="#aa8c30" d="m155 529-2 2-3 1-1-2 1-4 4-3h1l1 2-1 4h1l1-4-1-2-2-1-4 3-2 5 1 3h1l3-1 3-3h-1z"/><path fill="#fcca3e" d="m141 556 7-18h-1l-9 12z"/><path fill="#aa8c30" d="m141 556 7-18-1-2-9 14 3 7v-1l-1-6 7-12-7 18h1z"/><path fill="#fcca3e" d="M147 538c-4-3-5-5-4-8s4-1 4-1l3 3c2 0 4 0 5 2 2 2 1 4 0 5-2 0-5 1-8-1z"/><path fill="#aa8c30" d="M147 538c-3-2-4-4-4-6l1-2 1-1h2l3 3 3 1 2 1 1 2-1 2-4 1-4-1h-1c2 2 4 2 5 2l4-1c1 0 2-1 2-3l-1-3-3-1-2-1-2-1-2-1-2-1-2 2-1 2c0 2 2 5 4 6h1z"/><path fill="#aa8c30" d="M156 535s0 1-1 2-5 2-7 1l-5-5 2 3 2 2 4 1h3l2-1v-3zM145 540v2l-1 4 4-7-2-1-1 2z"/><path fill="#fcca3e" d="M116 536c2 1 4 4 3 6h-6c-3-2-4-4-4-6 1-2 4-2 7 0z"/><path fill="#aa8c30" d="m116 536 3 4v1l-3 1-3-1-3-4v-1l2-1 4 1v-1l-4-1-3 2v1c0 2 1 4 3 5l4 1 3-1 1-2-4-5v1z"/><path fill="#fcca3e" d="m123 544 14 7v8l-15-14z"/><path fill="#aa8c30" d="m123 544 14 9v4l-14-12v-1l-1 1 15 14 1-8-15-9v2z"/><path fill="#fcca3e" d="M123 545c-3 3-5 4-8 2-2-1 0-4 0-4l3-2c0-2 0-4 2-5 2-2 5 0 5 1s1 5-2 8z"/><path fill="#aa8c30" d="m123 545-5 3-3-1-1-2a3 3 0 0 1 1-1v-1 1l3-3 1-3 1-2h2l3 1v3l-2 5h1l2-5-1-3c0-1-1-2-3-2h-2l-2 3-1 2-2 2-1 1-1 2 2 3 3 1c2 0 4-1 6-4h-1z"/><path fill="#aa8c30" d="M126 545v2l9 9-12-10 1-2 2 1zM122 546l-3 1-4-1v-3l-1 2v2l2 1h3l2-1 1-1zM117 541h-2c-3 0-5-3-5-3l1 3 4 2 2-2z"/><path fill="#9ca168" d="M343 742s2-5 12-9c9-5 24-12 26-11 1 1-1 6-1 6l-10 3-7 5-9 5-11 1z"/><path fill="#9ca168" d="M368 716c-12 0-19 3-21 4h-5c-3-1-5-5-5-5l-3-2-1 9-18-16-2 10-2 5-19-17 1 13-5 1-13-9-4 1 5 8-17 1-3 3-4 4v1h7c1-1 2-3 3-2 0 1 0 4 3 4 2 0 9-6 15-3 6 2-8 6-6 11 1 4 11 2 14 1 2-1 10-11 13-7 4 5-9 9-7 14 3 4 10 3 14 1 3-2 12-15 14-12 3 5-7 9-5 13 3 4 9 0 12-3 4-2 6-9 11-12s5-1 6-1c2 0 6-4 6-4l12-6 7 1 3 1 6 1 1-5s-8-4-13-3zm-99 0 3-5-2-2-8-7-8-6-8-5-2-10-2-3-5 2-6-22-1-4h-3l-5 13-6-8-1-18-4 4-4 4-9-16-1 1v9a91 91 0 0 1-21-19l-4-8 3-8 2-9-8 3-1-21-2-6-9 13-4-6v-13h-2l-4 7-6-9c1-3 1-11-1-16-2-8-5-12-4-18s4-6 3-9c0-3-4 2-3-2s14-11 12-16c-3-4-15 7-12 0s14-8 15-18c0-6-11 4-12 1s7-10 7-14 1-4-1-6c-2-3-9 8-9 8l-8-3-2 11-3 9-9-5 2 11 3 11-10-2 5 9 7 7 4 5 3 2 4 4 1 6 3 7v21c-2 0-5-3-6-1-2 2 5 7 4 8-1 2-11-2-12 2 0 3 1 7 7 9s19 4 17 7-17-8-16 0c0 7 5 11 9 12s18 0 18 3c-1 4-12-1-13 4-2 5 7 6 9 6l11 1 15 15 17 13c-3-1-9-1-10 1s22 11 16 13-14-7-16-1 4 11 8 13 24 1 20 5c-4 5-19-3-19 3 0 5 10 14 15 14s11-9 13-4c3 4-4 6 1 7s9-5 15-4c5 1 15 5 20 10l10 10z"/><path fill="#717732" d="M349 739c4 0 4 2 5 2l12-8c5-3 14-5 14-5h1s-11 3-16 7l-11 7c0 1-2 3-6 3-3 0-5-2-5-3s3-3 6-3zm31-16s-3 1-5-1c-1-1-5-3-9-3s-9 2-14 7l-6 5 8-4c4-4 9-5 13-5 4-1 6 1 8 2 1 2 5 1 5 1v-2zm-183-74v-3l-8-4-18-13a439 439 0 0 0 25 20h1zm129 91 6-8 6-8-2-5-1-4 4 5 4 3 5-1-1-2-4-1c-5-2-6-9-9-9s-1 8-2 8c-4 0-8-16-18-17-7 0-9 1-9 3 0 1 9 11 6 12-3 2-13-15-20-15s-8 3-7 4c0 2 8 3 6 8s-9-7-15-7c-7 1-8 2-8 3 0 2 2 5 1 6 0 0-5 0-8 2l-8 9s5-6 10-7h20l-4-3-4-6 7 6 6 4 7 1s0 3-3 5l-6 6 7-5 6-5 5 1-3-6-6-9 8 8 4 7 5 1c2 0 1 2-1 6-3 4-4 9-4 9l5-7 6-7h5l-3-6c-2-4-2-9-2-9l5 9 4 7 5-1 1 1c1 2 0 3-2 6l-4 8zm-78-45 6 1s-6-3-7-8c-2-5 0-16-3-16s-4 8-7 6c-2-1 1-15-2-22-2-6-9-10-11-8-1 3-1 16-5 13s0-14-1-19c-1-6-4-9-6-8-3 1 0 11-3 11-4 0-3-7-5-7h-3c-1-2 0-6-2-6s-2 4-1 6l2 7 4 4-4 2h-7l7 2c2 0 5-1 6 1l5 7 2-8v-10s2 6 1 9l-1 11 3 4-11 1-11-2 10 4 14 1 7 7s3-5 3-10v-12l2 11-3 13-6 4-13 2h13c6-2 7-3 8-2l3 2 5 4-4 2-5 3 8-3 4-1 2 1-1-5-1-6 3 6v6l5 2zM136 566l1-13c0-7-5-18-6-19l-1-2 3-5-4 3-4-2-3-3 4 3h2l-1-7-7-3-9-7 10 5 6 2 5-3 6-4-6 3-6 1-1-9-4-4-5-10 5 6 6 5 5-3 11-7-10 4-6 3v-6l3-5-2-3c-1-1 1-9 1-9l1 4c0 2-1 4 1 4s12-10 13-12 3-7-2-5-4 7-8 6c-1 0-3-5-4-4-2 2-6 5-6 9-1 3 1 9-2 11-2 2-4-7-8-5-4 1-5 7-4 9 0 2 9 13 7 14-3 1-10-9-14-2s12 14 14 16l3 6 8 7c2 2 8 13 8 21v10zm42 62s-4-5-2-12c1-8 6-21 4-23-2-1-7 8-8 6-2-2 3-15 0-21-2-5-2-9-7-8-5 0-7 16-9 13s1-10 0-14c-2-3-2-5-5-4-2 1-3 8-5 8s-4-9-8-8c-3 1 8 17 8 17l4-5 2-5v7l-2 6h-7l-9-2 8 3 10 3 3 4 4 5 3-7 5-13-2 14-3 11-9-1-13-3a135 135 0 0 0 23 7l5 7 3-6 4-6-2 8-3 5-6 1h-9a71 71 0 0 0 16 3l2 5 5 5z"/><path fill="#fff" d="m371 763-5-4-4-1h-2l3-7 20-20 3-19h13v26l3 2 23 13v6l-4 2-2 1-9 1-15-11-6-6-11 14-7 3z"/><path fill="#016848" d="M387 712v4l-1 21c-1 2-12 6-18 12-6 5-6 9-6 9l-6 2-6 3s3-9 13-18 15-10 16-11v-20c0-2 1-2 2-2h6zM413 769l2-4 4-3-5-3c-6-2-9-1-13-4l-7-8-6 5 6 7c3 3 10 4 13 6l6 4z"/><path fill="#cd202a" d="M397 712h7v22c-1 5-4 9-5 11l-15 13-8 10-3-3c-2-2-3-2-3-4 1-1 5-7 12-12s13-10 15-18v-19z"/><path fill="#cd202a" d="M437 760s-2-1-7-1h-5l-7-6-13-6c-5-3-7-7-7-7l3-8 9 9 17 9 10 10z"/><path fill="#30c2dc" d="M482 675s-13-5-12-10 30-12 30-12v-8s-4 0-11 2c-8 3-19 6-32 6a6678 6678 0 0 0-124-8c-14-1-22-21-22-21l-7 1s2 10-1 11c-7 1-50-22-50-22l-3 9s27 15 26 20-8 5-8 5l3 6c1 0 44 3 45 15 0 6-11 9-11 9l4 4v2s24 0 30 4c7 4 10 9 18 14 8 4 63 3 71 1 10-3 16-14 32-19s21-5 21-5l1-4z"/><path fill="#0872a7" d="M482 675v-2l-7-3-3-2-1-3 2-2a95 95 0 0 1 24-8l3-1h1v-10h-1l-12 2c-7 3-18 6-31 6l-13-1v-1h-6a7821 7821 0 0 0-86-5l-9-1h-5v1-1h-5c-3 0-6-2-9-4a41 41 0 0 1-11-15l-1-1v-1l-1-1-8 2 1 1v8l-1 1v1h-1l-4-1a226 226 0 0 1-40-18l-5-3h-1l-3 11h1l1 1a203 203 0 0 1 24 16v2l-1 2-3 2h-5l4 8h3l24 4 13 4 3 3 2 3v1l-2 2-5 4h-2l-1 1h-1l4 5v3h1a179 179 0 0 1 30 4l8 6 10 8 5 1 30 2a399 399 0 0 0 37-2c5-2 9-5 13-9 5-4 10-7 18-10a181 181 0 0 1 20-5h1l2-6h-1v1l-1-1-1 5h1v-1l-21 5c-8 3-14 7-19 11-4 3-8 7-13 8l-5 1a324 324 0 0 1-65-2l-10-7-8-7-8-2c-10-2-23-2-23-2v1h1v-2l-4-5-1 1v1l6-3 4-2 2-4v-1c0-2-1-3-3-5l-10-5a115 115 0 0 0-29-5l-4-1v1h1l-4-6-1 1h1l5-1 3-2 1-3-1-3-6-6-19-11h-1l1 1 3-10h-1l-1 1 22 11a298 298 0 0 0 28 11h1l2-1 1-3v-3l-1-6-1 1 1 1 6-2h-1l6 10 7 8c3 2 6 4 10 4h11l57 4 30 1a1652 1652 0 0 1 11 1h2-1 1-1l14 2c13 0 25-3 32-6l11-2v-1h-1v8h1l-1-1-14 4a97 97 0 0 0-14 6l-1 2a3 3 0 0 0-1 1v3l3 3 9 4h1l-1-1 1 1z"/><path fill="#fff" d="M270 654c0 4-3 8-7 8s-8-4-8-8 4-8 8-8 7 4 7 8z"/><path fill="#0872a7" d="M270 654h-1c-1 3-3 6-6 6s-6-3-6-6 3-6 6-6 6 3 6 6h3c0-5-4-10-9-10-5 1-10 5-10 10s5 10 10 10 9-5 9-10h-2z"/><path fill="#fff" d="M314 619c0 4-4 7-8 7s-7-3-7-7 3-8 7-8 8 4 8 8z"/><path fill="#0872a7" d="M314 619h-2c0 3-3 5-6 5s-6-2-6-5 3-6 6-6 6 3 6 6h4c0-6-5-10-10-10s-9 4-9 10c0 5 4 9 9 9s10-4 10-9h-2z"/><path fill="#fff" d="M495 675c0 5-3 8-7 8-5 0-8-3-8-8s3-8 8-8c4 0 7 4 7 8z"/><path fill="#0872a7" d="M495 675h-2c0 4-2 6-5 6-4 0-6-2-6-6 0-3 2-6 6-6 3 0 5 3 5 6h4c0-5-4-9-9-9-6 0-10 4-10 9 0 6 4 10 10 10 5 0 9-4 9-10h-2z"/><path fill="#f8c83c" d="M229 607c-3 6 7 17 14 18s11 0 12-4c1-3 0-7-2-9-4-6-22-10-24-5z"/><path fill="#fff" d="M250 616c0-3-5-7-9-7s-7 0-7 2c1 2 10 5 10 6 1 1-2 2-1 3 2 2 4 1 5 0s3-2 2-4z"/><path fill="#f8c83c" d="M311 681c1 6-3 8-8 10s-15 1-18-3c-2-4 4-10 10-12 7-2 14 1 16 5z"/><path fill="#fff" d="M300 684c2 0 2 3 4 3s3-3 3-5c-1-2-4-4-7-4s-11 7-10 9 3 2 4 1l6-4z"/><path fill="#f8c83c" d="M497 655c5 6 13 1 15-2 3-2 9-6 7-10-3-4-8-3-11-3s-10 5-11 7-2 6 0 8z"/><path fill="#fff" d="M499 651s0-6 6-7c4 0 4 1 7 3 2 1 3-2 3-2s1 5-4 5c-4 0-3-2-7-3-3 0-5 4-5 4z"/><path fill="#f9aa51" d="m398 638-3-2h-10l-13 1 13 35 14 22 6 2 12-1 2-6-5-34-16-17z"/><path fill="#953220" d="M398 638h1l-3-2h-1l-9-1h-1l-13 1v1l12 36 15 21v1l6 2 12-1v-1l2-5v-1l-4-34v-1l-16-16h-1l-1 1 16 16 5 34-2 5-11 1-5-2-14-21-13-36-1 1v1l5-1h9a152 152 0 0 1 9 0v-1 1l3 2v-1l-1 1 1-1z"/><path fill="#f9aa51" d="M358 641v-4l7-1 7 1c1 0 9 10 12 17l10 24 11 18h-15l-6-3-21-32-5-20z"/><path fill="#953220" d="m358 641 1-4h-1v1h1l6-1h1a41 41 0 0 1 6 0v1-1 1-1 1c2 2 9 11 11 16l5 12a101 101 0 0 0 16 30h1v-1h-2a123 123 0 0 1-13 0v1l1-1-7-2-20-32-6-21v1h-1l5 20v1l21 32 7 3h15l1-1v-1l-1-2-11-16-5-12-4-12a64 64 0 0 0-10-15l-1-1-1-1h-1l-2-1h-5l-7 1h-1v5h1z"/><path fill="#f9aa51" d="m349 636 9 1c1 0 10 8 14 19 4 10 2 12 7 22 5 11 11 18 11 18s-14 1-22-1c-8-1-11-1-12-3l-7-5h-8l2-11-2-25v-13l8-2z"/><path fill="#953220" d="M349 636v1h3a80 80 0 0 1 5 0h1v1c3 2 10 9 13 18l3 11 4 12c5 10 12 18 12 18v-2h-2a200 200 0 0 1-20-1l-8-1-2-1-2-1-4-3a47 47 0 0 0-3-2h-7l2-10-2-25v-12l7-2v-1 1-2l-8 2v1l-1 13 2 25-2 11 1 1h8v-1 1h1l5 5 2 1 11 2 14 1h8l1-1v-1a72 72 0 0 1-15-28l-3-12a46 46 0 0 0-12-17l-2-2h-1l-3-1h-6v1z"/><path fill="#f9aa51" d="m433 643-13-6-25-1 2 13c1 6 5 21 9 28s8 16 11 18c2 2 16-4 16-4l10-1-2-11-1-3 2-29-2-5-7 1z"/><path fill="#953220" d="m433 643 1-1-14-6-25-1h-1v1l2 13c1 6 5 21 9 28l6 11a93 93 0 0 0 5 8h7l11-4-1-1v1l10-1 1-2-2-10-1-3 2-29-2-5-1-1-7 1v1l1-1-1 1 1 1 6-1 1 4-2 29v1l1 3 2 9-9 1-2 1a106 106 0 0 1-13 3h-1l-2-2-8-16c-4-6-8-21-9-27l-2-9v-4h-1v1l25 1 13 6h1l-1-1z"/><path fill="#f9aa51" d="M345 643c0 3 3 3 4 3s4-1 4-5c0-5-3-8-8-8-5-1-9 6-9 10s4 7 4 9c0 0-4 4-4 11s6 13 6 13-6 5-6 10 4 8 9 8c4 0 10-2 10-6s-3-6-6-6-4 1-4 3"/><path fill="#953220" d="M344 643v2l2 2a6 6 0 0 0 3 0l3-1 2-5c0-3-1-5-3-6l-6-3h-1l-7 4-2 7 2 6 2 2v1h1l-1-1-2 3-2 9c0 4 2 8 3 10l3 4 1-1-1-1-3 4c-2 2-3 4-3 7s1 5 3 7l7 2c2 0 5 0 7-2l3-2 1-3-2-5c-2-2-3-2-5-2l-4 1-1 3 1 1 1-1v-2h3l3 1 2 4-1 2-3 2-5 1c-2 0-4 0-6-2l-2-5 3-6 2-2v-1h1v-2c-1 0-6-5-6-12a15 15 0 0 1 3-10h1v-2l-3-3-1-5c0-1 0-4 2-6 1-2 3-3 5-3h1l5 2 2 5-1 3-2 1h-2l-1-1v-1l-1-1-1 1z"/><path fill="#f9aa51" d="M438 645c0 3-2 3-4 3s-4-1-4-5 5-6 8-6c4 0 9 5 9 10 0 6-4 10-4 10s3 1 3 8-5 12-5 12 6 2 6 9-5 9-8 9c-4 0-10-2-10-6 0-5 4-7 6-7s5 3 5 5"/><path fill="#953220" d="M437 645v1l-1 1h-4l-1-4 1-2 3-2 3-1 3 1 4 3 1 5-1 7a14 14 0 0 1-2 2l-1 1h1c0 1 2 2 2 8a18 18 0 0 1-4 11l-1 1h1l3 2 2 7-2 7-5 2-6-2-2-2-1-2c0-3 1-4 2-5l3-1 2 1 2 3a1 1 0 1 0 1 0l-1-4-4-2-4 2c-2 1-2 3-2 6l1 3c1 2 2 3 4 3l5 1c2 0 4 0 6-2s3-4 3-8-2-6-3-8l-3-2-1 1h1s5-5 5-12c0-4-1-6-2-7l-1-2-1 1h1l2-2 2-8c0-3-1-5-3-7l-3-3-4-1-6 2-2 2-1 3c0 3 1 4 2 5l3 1h3l1-2 1-2-1-1-1 1z"/><path fill="#953220" d="m353 683 2 2c1 1 1 4 3 5 3 3 26 4 33 4s28 0 32-2 5-6 7-8l3-2-3 3v5l2 3-3 3-8 2-55-1c-7-1-7-1-9-3l-3-3 1-3-2-5zM426 640l4 2s-4 1-6 8c-3 7-1 9-3 10h-21l-3-8 29-12z"/><path fill="#231f20" d="M487 637s-3-1-5-4c-1-2-2-6-1-7 1 0 3 2 3 4l3 7zM525 627l3 5 5 2s-6 0-7-2l-4-5h3z"/><path fill="#231f20" d="M536 630s-3 2-6 1-4-2-3-4c1-1 1 0 3 1 1 2 6 2 6 2zM555 614l-4 2-6-1 6-1h4zM527 576s-5 1-6 4c-1 2-1 4 1 4s2-2 2-3l3-5zM508 587l-4 3c-1 1-2 6 0 6s3-3 3-4l1-5z"/><path fill="#8cbebf" d="m474 609-10 11s23 14 42 13c18 0 39-15 40-18 2-3 1-15-2-20-2-4-15-13-20-13-4 0-13 7-21 15-8 7-7 14-18 13l-11-1z"/><path fill="#04534e" d="M474 609h-1l-11 12h1l14 7c8 4 18 6 28 6h1a81 81 0 0 0 40-17l1-1 1-3v-2l-1-9-2-7-3-4a59 59 0 0 0-13-9l-4-1h-1l-10 5-11 10-8 9-3 3-5 1h-2l-11-1-1 1h1v1l11 1h2l6-1 5-5 6-8 12-10c3-2 6-4 9-4l4 1a51 51 0 0 1 15 12l1 6a52 52 0 0 1 1 11v2l-2 1-15 10c-7 3-15 6-23 6h-1c-9 0-19-3-27-6l-10-4-3-2h-1v1l11-11-1-1v1-1z"/><path fill="#0c8489" d="M471 614s26 4 33-3c8-6 16-19 21-22l7-3 6 4 6 5 2 13 1 6-8 7-15 7-14 4h-12l-24-7-6-5-2-1 5-5z"/><path fill="#04534e" d="M510 599c0-2 2-2 4-2s4 0 4 3c0 2-2 5-4 5s-4-4-4-6zM520 606c0-2 2-3 4-3 3 0 5 2 5 4s-2 4-4 4c-3 0-5-4-5-5zM517 621c0-3 1-3 4-3 2 0 4 1 4 3 0 3-2 5-5 5-2 0-3-3-3-5zM503 616c0-2 3-3 5-3s4 2 4 4c0 3-2 5-4 5s-5-3-5-6zM482 619a5 5 0 1 1 11 0 5 5 0 0 1-11 0z"/><path fill="#8cbebf" d="M520 606c0-2 3-3 4-3 2 0 3 1 3 3 0 1-1 3-3 3l-4-3zM517 620c0-2 2-3 4-3s4 1 4 3-2 4-4 4-4-2-4-4zM504 616c0-3 3-4 5-4l1 4c0 2-1 4-3 4s-3-2-3-4zM510 599c0-2 2-2 3-2s2 0 2 2l-2 4c-2 0-3-2-3-4zM482 617c0-2 2-4 5-4s6 1 6 3-3 6-6 6-5-2-5-5z"/><path fill="#231f20" d="m492 613-6 2c-1 2-2 4-1 5l3-2 4-5zM509 609s-4 3-4 5l1 4c1 0 2-3 1-5l2-4z"/><path fill="#231f20" d="m512 613-4 1-2 4 3-2 3-3zM515 593l-2 2c-1 1-3 4-1 4 1 1 2 0 2-2l1-4zM528 601l-4 2-1 3c2 0 2 0 3-2l2-3zM526 617l-3 3c-2 1-2 2-3 1-1-2 0-3 1-3l5-1z"/><path fill="#04534e" d="M547 606s1 7-5 11c-6 3-23 15-40 14-16-1-34-11-34-11l-3 1 4 2 13 6 14 4h9l8-1 14-4 12-7 7-5 1-2v-8z"/><path fill="#231f20" d="M228 515s4 3 3 6c0 2-1 3-2 3l-1-5v-4zM256 541s-1 4-3 5-3-2-3-3h3l3-3zM195 544s2 3 4 3c2 1 4-1 3-2h-2l-5-1zM206 565s2 3 5 3c3 1 5-2 5-2h-5c-1 1-5-1-5-1zM225 582l6-3c1-1 2-3 1-4-1-2-2 2-2 3l-5 4z"/><path fill="#8cbebf" d="M256 569s3-22-15-38-29-12-35-6-12 25 7 41 43 11 43 11v-8z"/><path fill="#04534e" d="M256 569h1v-4c0-8-2-23-15-35-9-8-17-11-24-11-5 0-10 3-13 5-3 3-6 9-6 17 0 7 4 17 14 26 12 10 25 12 34 12l9-1h1v-9h-1 1-2v8h1v-1h-1l-8 1c-8 0-22-2-33-12-10-8-13-17-13-24s3-13 6-15c2-3 6-5 11-5 6 0 14 3 23 11a43 43 0 0 1 14 37h1z"/><path fill="#0c8489" d="M202 545s-1-12 5-15c6-4 25-7 34 11s9 27 7 36h-10l-15-7-13-9-8-16z"/><path fill="#04534e" d="M254 572s-3 3-10 3c-6 0-36-8-44-35l1 6v2l2 5 6 10 8 6 10 5 7 3 10 1h5l5-6z"/><path fill="#04534e" d="M238 564c0-2 1-2 3-2s4-1 4 1c0 3-2 6-4 6s-3-2-3-5zM239 550c0-2 2-3 4-3s3 1 3 3-1 3-3 3-4-1-4-3zM226 566c0-2 1-3 4-3s3 1 3 3-3 3-5 3-2-2-2-3zM225 549c0-2 1-2 2-2s5 1 5 3-3 5-5 5-2-4-2-6zM212 552c0-2 1-5 3-5s5 3 5 5-2 3-4 3-4-1-4-3zM214 537c0-2 1-2 4-2 2 0 4 1 4 3s-3 4-5 4-3-3-3-5zM228 535l4-1c2 0 3 2 3 4s-2 3-5 3c-2 0-2-4-2-6z"/><path fill="#8cbebf" d="M214 537c0-2 1-3 3-3s3 1 3 3c0 1-1 3-3 3s-3-2-3-3zM212 551c0-2 1-3 2-3 2 0 4 0 4 2s-2 3-4 3-2 0-2-2zM228 536c0-2 1-2 3-2s3 0 3 2l-4 2c-1 1-2-1-2-2zM225 550c0 2 1 3 3 3s4-1 4-3-2-4-4-4-3 2-3 4zM240 548c0 1 1 3 3 3s4-2 4-3c0-2-2-4-4-4s-3 2-3 4zM225 566c0-2 2-4 3-4s4 1 4 3-3 4-5 4l-2-4zM238 563c0-2 2-2 4-2s3 0 3 2-2 4-4 4-3-2-3-4z"/><path fill="#231f20" d="m242 541 2 4v5l-3-3 1-6zM230 529l2 3-2 4-1-3 1-4zM217 530l1 4-1 4-1-3 1-5z"/><path fill="#231f20" d="m212 533 3 2c2 1 3 2 2 3s-2 0-2-1l-3-4zM222 547l4 1c2 2 3 3 2 4s-3-1-3-2l-3-3zM210 547l3 1c2 1 2 3 1 3l-2-1-2-3zM240 556l1 5-1 4-1-4 1-5z"/><path fill="#231f20" d="m237 561 3 1v3l-2-2-1-2zM223 561l4 1v5c-1 1-1 0-2-2l-2-4z"/><path fill="#04534e" d="M218 521s-12 2-14 10c-2 7-2 16-2 16l-2-10 2-6 4-6 5-3 5-2 2 1zM255 566s1-3-2-12l-11-22 6 6 4 7 2 7 2 6v6l-1 2z"/><path fill="#231f20" d="m267 551 5 4-1 2c-1 1-3-1-3-2l-1-4zM250 597l4-5h5c1 1-1 3-3 3l-6 2zM279 609l5-4c1-2 2-3 1-4s-3 0-4 2l-2 6zM276 606l2-5c1-1 2-2 3-1v3l-5 3z"/><path fill="#8cbebf" d="M324 584s-18-27-46-28c-23-1-30 19-29 25s9 19 39 21c31 3 35-14 37-15l-1-3z"/><path fill="#04534e" d="m324 584 1-1s-4-7-13-13a59 59 0 0 0-36-15 27 27 0 0 0-26 18 21 21 0 0 0-2 8c1 7 10 20 40 22l6 1c13 0 20-4 25-8a25 25 0 0 0 6-7v-1l1-1v-3l-1-1-1 1v3l-1 1c-1 2-3 6-8 8-4 3-11 6-21 6l-5-1c-30-2-38-15-39-20v-1l1-6c2-4 4-8 8-12a26 26 0 0 1 19-5c14 1 25 7 33 14a81 81 0 0 1 12 12v1h1z"/><path fill="#0c8489" d="M303 566s7 5 11 10c3 4 4 8 2 8-2 1-19-14-32-18-13-3-25 0-28 7-2 6-1 16 5 20s35 8 35 8l13-2 9-4 1-5 2-6 1-2-7-8-12-8z"/><path fill="#04534e" d="M280 569c0 2-2 3-4 3-1 0-3-1-3-3s2-3 3-3c2 0 4 2 4 3zM263 575l4-1c2 0 4 1 4 3 0 1-3 4-5 3s-3-3-3-5zM281 585c0-2 2-4 4-4s4 2 4 4-3 4-5 4-3-2-3-4z"/><path fill="#8cbebf" d="M268 589c0-2 2-2 3-2 2 0 4 1 4 3s-2 3-4 3-3-2-3-4z"/><path fill="#04534e" d="m292 595 2-2c2 0 4 0 4 2s-2 3-3 3-3-1-3-3zM303 587c0-2 1-2 3-2s3 2 3 4l-4 2c-2 0-2-2-2-4z"/><path fill="#8cbebf" d="m279 568-2 2-4-2c0-2 1-2 3-2 1 0 3 0 3 2zM270 575l-4 2-2-2 2-2c1 0 4 0 4 2zM274 589l-2 2-4-2c0-2 1-3 2-3 2 0 4 1 4 3zM288 584l-4 3-2-4c0-2 1-3 3-3 1 0 3 2 3 4zM309 588c0 2-2 2-4 2l-2-3c0-2 0-4 4-3l2 4zM297 595c0 1-1 3-3 3s-2-2-2-3l2-2c2 0 3 0 3 2z"/><path fill="#231f20" d="m299 586 5-1 2 2-2 1-5-2zM287 596l4-1c1-1 3 0 3 1l-3 1-4-1zM279 578s5 2 6 4v4l-3-2-3-6z"/><path fill="#231f20" d="m277 585 6-1 3 1-2 1-7-1zM265 585l5 2 1 2h-3l-3-4z"/><path fill="#231f20" d="m264 591 4-3 3 1-2 2h-5zM261 573l4 1 2 2h-3l-3-3zM270 562s5 1 6 3c2 2 1 3 1 4l-4-2-3-5z"/><path fill="#04534e" d="M319 593s-8 7-28 6c-20 0-37-9-42-18l2 5 4 5 14 7 15 4 13 1 11-2 9-5 1-2 1-1zM322 583l-8-8-22-16 14 7 10 8 6 7v2z"/><path fill="#231f20" d="m323 566 5 3 2 2s-1 3-2 2l-3-3-2-4zM337 558l7 4v5c-1 1-4-3-4-4l-3-5z"/><path fill="#231f20" d="m342 557 5 5c1 1 2 3 1 4-2 0-4-2-4-3l-2-6zM367 563s3 1 4 4l-1 5-2-3v-2l-1-4zM373 565l3 5v3c-2 0-3-2-3-3v-5zM329 619l4 1c2 0 4-3 3-4 0-1-1-2-3-1l-1 3-3 1zM353 626s4 0 6-3c2-2 3-4 2-5l-4 2-4 6zM373 627l5-3c2-2 3-3 1-5-1-1-2 0-2 1l-1 2-3 5z"/><path fill="#231f20" d="m380 627 3-5v-4c-2 0-3 2-3 3v6z"/><path fill="#8cbebf" d="M318 594c1-9 13-29 28-29 6 0 17 3 27 8 8 3 11 7 16 8l13 1 18-2-14 20-5 5s-4 9-17 14-35 1-44-1-22-12-22-24z"/><path fill="#04534e" d="M318 594h1l3-8c2-4 5-9 9-13s9-7 14-7h1l12 2 15 5 8 6c3 1 5 3 8 3l7 1h6l16-2-13 19-5 4c0 1-4 9-17 14l-16 2c-10 0-21-2-27-3-5-2-10-4-14-8s-7-9-7-15h-1c0 7 3 12 7 16s9 7 14 8c7 2 18 4 28 4l17-2c13-6 18-15 18-15h-1l1 1 5-5 15-22-20 2a60 60 0 0 1-13-1l-6-3-10-5a106 106 0 0 0-27-8h-1c-3 0-7 1-10 4a41 41 0 0 0-17 26z"/><path fill="#0c8489" d="m406 597-5 1c-2 0-42-24-55-23-12 1-24 6-24 19s2 13 5 16c3 4 27 9 27 9h15l12-1 11-6 5-5 4-4 5-6z"/><path fill="#04534e" d="M342 590c0 3 0 5-3 5s-4-2-4-4 1-3 4-3c2 0 3 0 3 2zM347 579c0-2 2-3 4-3s4 1 4 3-2 4-4 4-4-2-4-4zM371 586c0-2 1-4 3-4s4 2 4 4-2 3-4 3-3-2-3-3zM376 600c0-2 1-4 3-4s4 1 4 3 0 5-3 5c-2 0-5-1-5-4zM364 610c0-2 2-4 4-4s4 2 4 4-2 3-4 3-4-1-4-3zM342 606c0-2 1-3 3-3s4 1 4 3-2 3-4 3-3-1-3-3z"/><path fill="#8cbebf" d="M342 590c0 2-1 3-3 3s-4-1-4-3 1-3 4-3c2 0 3 1 3 3zM354 578c0 2-1 4-3 4s-4-2-4-4 1-3 3-3 4 2 4 3zM377 585c0 1-1 3-3 3s-4-2-4-3c0-2 2-3 4-3s3 1 3 3z"/><path fill="#04534e" d="M365 594c0 3-1 5-3 5-3 0-5-1-5-4 0-2 2-3 4-3s4 0 4 2z"/><path fill="#8cbebf" d="M348 605c0 2-2 4-4 4s-3-2-3-4 2-3 4-3 3 1 3 3zM364 594c0 2-1 4-3 4s-4-2-4-4 2-4 4-4 3 2 3 4zM383 599c0 2-1 4-3 4s-5-2-5-4 1-3 3-3c3 0 5 1 5 3zM371 609c0 2-1 3-3 3s-5-1-5-3c1-2 2-3 4-3s4 1 4 3z"/><path fill="#231f20" d="M372 597s6-1 7 1c2 1 1 2 1 3l-3-1-5-3zM367 578l6 3c2 2 2 4 1 4s-2 1-3-1l-4-6zM353 587l6 5c2 1 2 3 1 3l-3-1-4-7z"/><path fill="#231f20" d="m351 591 7 2c1 1 3 1 2 2l-1 2-4-2-4-4zM344 574l7 1c1 1 2 4 0 5-1 1-3-1-3-2l-4-4zM331 583s5 2 7 5c1 1 2 2 0 3s-3-2-3-3l-5-5z"/><path fill="#231f20" d="m329 590 6-1 4 1c0 2-2 2-4 1l-6-1zM360 610s4-2 6-2c2 1 3 0 3 2l-3 1-6-1zM339 607l3-2h2c1 1-1 2-2 2h-3z"/><path fill="#04534e" d="M401 603s-6 7-14 11c-9 3-15 5-27 4s-17-3-25-7-14-10-15-12l1 4 7 10 9 3 12 3 12 2h9l11-2 7-3 5-2 3-3 5-8zM390 582s-4 1-11-4c-7-4-16-10-32-10s-21 11-22 12l7-10 8-4 5-1 6 1 7 2 6 2 8 2 7 4 7 4 4 2zM411 587h-12l-3 1-1 2-3-7 13-1 7 2-1 3z"/><path fill="#0c8489" d="M394 653c1 2 2 3 4 3h19l4-6 3-11 4-5 12-6 10-3 7-1 9-3 6-4 3-4 3-6-3-9-7-10-12-5h-10l-11 4-20 5s-11 5-16 13c-4 9-4 11-5 22v26z"/><path fill="#04534e" d="M394 653h-1l2 3 3 1h19l5-6 3-12h-1 1l2-2 1-1v-2 1-1 1-1 1-1 1h1l6-4 5-2-1-1 1 1 10-3 7-1 9-3 7-4 3-4 3-7-3-10-7-10-13-5h-10l-12 4-19 5h-1l-6 3c-3 3-7 6-9 11l-5 10-1 12a215 215 0 0 0 0 26h2v-3a323 323 0 0 1 0-23l1-12 4-9c2-4 6-8 9-10a48 48 0 0 1 6-3v-1 1l20-5 11-4h10l12 5 7 9 2 8-2 7-3 4-7 3-9 3-6 1-11 3-6 3-4 2-1 1h-1v1l-1 1-3 3-3 12-4 5h-12v1-1h-8l-1-2h-1 1-1z"/><path fill="#8cbebf" d="M399 649c4 0 1-7 5-14l11-17c1 0 2 2 4 1l4-3c0-1 0-5 3-8l10-7h4v3c2 1 5 1 6-2l1-3s2-2 6-1c5 1 5 0 6 2s-2 2-2 3v2c1 1 1 4 4 3l4-1 1-2s1-2 0-2v-1c1 1 6 6 7 4 2-3 2-7 1-7l-7-11-11-3-15 1-14 8-13 7s0 11-3 9c-2-2-5-7-6-6-2 2-4 10-5 14l-5 20c0 5 3 11 4 11z"/><path fill="#8cbebf" d="m412 631-3 2v3l2 3h2l4-1 1-3-2-2-4-2zM435 613c-2-1-3 1-3 1l-1 2 2 3c1 1 4 2 5 1l1-3c0-2-2-3-2-3l-2-1zM453 617l-3-1c-1 0-3 2-2 4 0 3 2 3 4 2 2 0 1-3 1-3v-2zM401 621c0 1 2 3 4 3 3 0 4-2 4-4 1-1-1 2-3 2h-4l-1-1z"/><path fill="#04534e" d="M418 635s0 3-2 4l-3 1-3-1-1-3s2 3 4 3 5-4 5-4zM466 605s0 3-2 3l-3 2-3-2c-2-3-1-5-1-5s2 5 5 5 4-3 4-3zM423 616s-1 4-4 4l-3-1h3l4-3zM431 615l1 4 4 2 3-2v-2l-1 1-2 1-3-1-2-3zM447 599s1 2-1 4-6 1-6 1 3 1 5-1l2-4z"/><path fill="#04534e" d="M398 656s19-1 20-3c2-3-1-13 10-21 12-8 21-8 27-9 6 0 19-4 21-16 2-7-8-8-12-15-3-6-13-4-13-4s-11 0-16 5c-3 3-2 6-4 8-1 2-14 0-15 2l-1 7c-1 1-4-2-4-2l1-11 16-9 19-10h12l13 6 6 8 2 8-1 7c-3 11-13 18-24 18-11 1-21 6-26 9-5 4-7 20-7 22s-24 0-24 0z"/><path fill="#231f20" d="M406 618h-3c-1-3 1-8 1-8v6l2 1v1zM418 616v-5l6-5-3 6-3 4zM413 635l-1-3c0-2 4-6 4-6l-2 4 1 4-2 1z"/><path fill="#231f20" d="m422 630-4 3c-2 1-4 3-5 2l1-3 8-2zM438 607l-3 4c-1 3-2 5 0 5 1 1 2-3 2-4l1-5z"/><path fill="#231f20" d="m444 615-4-2h-4c-1 1-3 2-2 3s3-1 3-1l4-1 3 1zM441 599c1 1 2-1 3-2l3-5-4 3c-1 1-3 3-2 4zM466 598l-5 3c-1 2-2 3-1 4s2-1 3-2l3-5zM458 615l-3 3-4 2c-1-1 0-2 1-3l3-1 3-1z"/><path fill="#fcca3e" d="m302 532-6 15h6l2-14z"/><path fill="url(#b)" d="M215 368a26 38 0 1 1-52 0 26 38 0 1 1 52 0z" transform="matrix(-.39719 -.06382 -.0629 .40295 395 424)"/><path fill="#aa8c30" d="m302 532-6 16 6-1 2-14-2-3v2l1 1-3 14h-3l6-15h-1z"/><path fill="#fcca3e" d="M305 525c-2 0-4 2-4 4-1 2 1 4 3 5 2 0 4-2 5-4 0-2-2-5-4-5z"/><path fill="#aa8c30" d="M305 525a5 5 0 0 0-5 4c0 3 2 5 4 5a5 5 0 0 0 5-5c0-2-2-4-4-4v1c2 0 3 1 3 3v1c0 2-2 3-4 3s-3-2-3-4 2-3 4-3v-1z"/><path fill="#aa8c30" d="M307 526s1 0-1 0c-1 0-4 1-4 4s1 3 3 3-1 1-1 1l-2-1-1-1-1-2 1-2 1-2 2-1h1l2 1z"/><path fill="#aa8c30" d="m303 536-2 1-2 4 3-8 2 1-1 2z"/><path fill="#fcca3e" d="m571 563-15 15 6 2 10-14z"/><path fill="#aa8c30" d="m571 563-16 15 7 2 12-14-3-3v2l1 1-10 14-4-2 14-13-1-2v2z"/><path fill="#fcca3e" d="M578 558c-2-1-5-1-7 2-2 2-1 5 2 7 2 1 5 0 7-2 1-3 1-6-2-7z"/><path fill="#aa8c30" d="m578 558-2-1a6 6 0 0 0-6 6l2 4 3 1a6 6 0 0 0 6-6c0-2-1-4-3-4l2 4-1 3-4 2-2-1c-2 0-2-2-2-3v-3l5-2h2z"/><path fill="#aa8c30" d="M580 559s1 2-1 0c-1-1-6-1-7 2s0 5 2 6h-1l-2-2-1-2v-2l2-2 3-2h2l1 1 2 1zM570 569l-3 1-5 3 9-8 1 2-2 2z"/><path fill="#fcca3e" d="m184 481 9 18 2-5-8-13z"/><path fill="#aa8c30" d="m184 481 9 19 2-6-8-15-3 2v1l3-1 8 13-2 3-8-16h-1v1z"/><path fill="#fcca3e" d="M181 474c-2 1-2 4-1 6 2 3 5 3 7 1 2-1 2-5 1-7-2-2-5-2-7 0z"/><path fill="#f15770" d="M212 509a11 17-27 1 1-20 11 11 17-27 1 1 20-11z"/><path fill="url(#c)" d="M215 368a26 38 0 1 1-52 0 26 38 0 1 1 52 0z" transform="matrix(.3832 -.2067 .20375 .38875 55 411)"/><path fill="#aa8c30" d="M181 474v-1c-2 1-2 3-2 4a6 6 0 0 0 5 6l3-1c2-1 2-3 2-4l-1-4-4-2-3 1v1l3-1c1 0 2 0 3 2l1 3-1 3-3 1-3-2-1-3 1-3z"/><path fill="#aa8c30" d="M183 473s1-1 0 0c-2 1-3 5-1 7s4 2 6 0v1l-3 1h-2l-2-1-1-2-1-3 1-2 1-1h2z"/><path fill="#aa8c30" d="m189 484-1 3 1 5-4-10 2-1 2 3z"/><path fill="#e92736" d="M183 511h6c2-1 2-3 2-3l1-3-3-6h-4l-1-2c-1 0-6 6-5 7h2v4l2 3z"/><path fill="#e92736" d="m189 500 3 4h4l3-4v-3l-2-4-1-1-1-2c-1-1-9 4-8 5h1l1 5z"/><path fill="#e92736" d="m208 498-1-7-2-1 1-2c0-1-10 1-9 2l2 1-2 2 1 4 1 2 2 1 5-1 2-1z"/><path fill="#f7e204" d="M189 503c1 2 0 4-1 5l-5-1 1-3 3-2 2 1zM190 498l1 3 4 1 2-6-3-1-4 3zM200 493v3l4 2 2-4-2-1h-4z"/><path fill="#e92736" d="m287 544 3 4h3l3-2 1-5-2-3 1-1h-7v2l-2 2v3z"/><path fill="#e92736" d="m297 541-1 4 2 3h5l1-2 2-3-1-2 2-2-8-2 1 1-3 3z"/><path fill="#e92736" d="m309 552 4-4-1-3h2l-6-5v2l-2 1-2 2v4l3 3h2z"/><path fill="#f7e204" d="M295 543c0 2-3 3-4 3l-2-4 2-2 3 1 1 2zM299 541l-2 2 2 3c1 1 5-1 5-2l-1-2-4-1zM308 545l-2 1 1 3c1 1 3 0 3-1v-1l-2-2z"/><path fill="#e92736" d="m548 572 2 4 3 2h2l4-4-1-3 1-1c0-1-5-4-6-3v1l-3 1-2 3z"/><path fill="#e92736" d="m558 574-3 3 1 3s2 2 3 1h2l3-2 1-1 2-1-5-5-1 1-3 1z"/><path fill="#e92736" d="M560 587h5l1-2 1 1v-7l-1 2-2-1h-3l-2 1-1 1 1 4 1 1z"/><path fill="#f7e204" d="m556 574-4 1v-5h2l2 2v2zM559 575l-2 1v3h5v-2l-3-2zM563 582h-2l-1 2 3 2 1-1-1-3z"/><path fill="#904720" d="m352 329 3 9-14 7-1 2-2-5-1-4-9-3-1-2 1-3 6-3h15z"/><path fill="#ab6d29" d="M387 255s-26-5-25 17c0 6 1 9 7 10 5 2 16 2 25 10 9 9 10 15 10 19 0 5-3 10-3 10l6 28 6 20 17-9 10-31-13-55-40-19z"/><path fill="#4d2a15" d="m387 255-6-1c-4 0-9 1-13 3s-7 7-7 14v1c0 3 0 5 2 7l5 4 12 2a35 35 0 0 1 22 18l1 8a21 21 0 0 1-2 9v1l5 28 6 22 19-11 10-31-13-56-41-18-1 1 41 18 12 55-9 30-17 9-5-19-6-28h-1 1s2-4 2-10l-1-8c-2-3-4-7-9-11-4-4-9-7-14-8l-11-3c-3 0-4-1-5-3l-2-6v-1c0-7 3-10 7-13 3-2 8-2 12-2a36 36 0 0 1 5 0l1-1-1 1 1-1z"/><path fill="#4d2a15" d="M412 362s9-4 11-11c1-2-9-10-9-10l7 4 5 3c1 0 5-10 3-12s-4-7-8-9c-3-3-8-3-8-3s7-2 10 0l4 4-2-14c-2-3-3-5-7-5l-9-1s6-3 10-2 5 3 5 3c1-1-2-9-3-11l-8-7h-9s4-2 8-2l5 1-3-2-15-7-12-1s0-2 4-3h4l-10-3h-8l-11 1 3-3 4-3c4-1-2-4-2-4l3-4 15 1 29 17 14 12 9 23-3 39-19 16-9 1 2-8z"/><path fill="#d2a567" d="m386 265-1-6v-3s-9-2-16 4c-7 5-3 15-3 15l7-5 11-1-4-4h-8s3-2 8-2l6 2z"/><path fill="#8f4620" d="m416 365-7 2 4 27 26 44 13-2 5-8 3 1c2 2 7 11 11 12 5 2 7 1 10 4 4 3 18 24 19 25l-1-9-4-12-5-9-1-2h7l4 3 7 5 4 4 1 5 1 4 2 5 4 8 4 8 2-3-2-9-7-22-5-7 7 4 7 8 3 8 3 7 1 7 2 6 4-2v-5l-4-15-1-16s2 0 4 2l5 9 1 14 3 14 4 14 5 9 3 4v-7l-6-58 1-2 2 2 4 7 2 9 1 7 1 11 1 13 6 14 4 7 1-9-2-61 1-2 4 4 3 4 2 14 2 39 1 10 12-102 7-2 1-2-5-4-12-18-8-17-14-26-24-29-18-15-7-5 1-4 4-6h-4l-8 1-8-2-15-11-17-8-10-4-24-6-24-3h-11l-10 1s-5 2-6 5c-2 4-2 6-1 10 0 5 3 7 10 10 6 2 22 13 22 13l8 8 2 3 1 3 5 40-10 22-7 4z"/><path fill="#ab6d29" d="M441 428s5 7 11 1c6-5-3-21-3-22l3-2 5 9s2 4 1 11-8 13-8 13l-7-1-2-9z"/><path fill="#4d2a15" d="m592 522-6-16-2-13-1-34-1-11-6-8-2-3 1-1s2 2 3 1 0-7-2-16c-3-9-14-30-14-30l1 1 3 3 7 6 15 5 8 1 5 11s4 18 3 27c0 9 0 16-4 25-3 9-4 37-5 42l-2 9-1 1z"/><path fill="#8f4620" d="M592 475s3-4 4-9 2-45-3-50-14-8-15-8l4 13 3 5 2 6c1 4 4 12 4 22l1 21z"/><path fill="#4d2a15" d="M570 500s2-19 1-33-2-15-3-18c-2-2-6-11-10-23-3-11-5-20-7-22s-6-7-7-6l-1 4-6-1-1-4 2-6-1-2v-5l7 6 15 10 8 32 7 19 1 33-1 28-4-12zM579 410l6 5 6 4c-1 1-5-1-8-2s-4-4-4-4v-3z"/><path fill="#4d2a15" d="M550 492s3-6 2-15c0-8-4-28-6-31-1-2-7-6-12-17s-5-14-8-18l-8-9 1-12 13 7 6 2 7 32 5 9 3 12 3 30 2 23-1 3-7-16zM535 479s0-9-2-18c-3-8-4-14-7-17s-9-9-15-18l-14-18v-12l7 5 9 4 3 14 5 10 6 9 4 3 3 15 2 8 3 12-1 6-3-3zM524 479l-4-4s2-2 1-6l-4-14-4-8-16-15-14-12-6-3-2-14s5 6 8 7l7 3 11 18 3 4 9 8 4 8 3 9 4 12v8-1zM504 475s-6-7-7-11l-2-10c-1-5-8-13-13-17s-12-10-12-13l1-4 4 3 16 17 5 9 3 11 3 6 2 6v3zM562 391s11 13 14 1c1-6-4-17-4-17l-14-22-21-27-12-6 4 8s9 9 21 30 10 32 10 32l2 1zM497 307s22 19 37 40c14 20 19 34 16 36-3 3-12-1-15-7-4-6-7-16-21-31-13-15-19-17-19-17l-10-16 12-5z"/><path fill="#4d2a15" d="m486 353 21 19 13 15 5 6s-3-6-2-8c2-2 4-1 4-1l-41-43v12zM483 354s4 8 11 15l15 14 3 10s-19-14-19-11c0 4 4 11 4 11l-5-3-8-11-5-10-6-14 10-1z"/><path fill="#4d2a15" d="M426 399s10 9 15 0c6-9 1-19 1-19s14 21 18 2c1-4-8-17-8-17l3-3 7 12s7-3 7-11c0-9-7-19-7-19l6 7s13 0 13-8c1-8-10-16-10-16s8 1 8-4-12-9-12-12 4-9 9-6 13 5 16 0c3-6 0-7 0-7l-8-2-12-7-10-3-10-2 4 8 2 20v10l2 21-5 17-2 3-2 2-4 10-6 6-8 10-7 8z"/><path fill="#ab6d29" d="M496 437s-3-6-8-10-14-4-14-4l15 15 7-1zM516 441s-5-9-10-15c-6-6-9-13-11-13h-2l1 12 10 10s10 7 12 6zM533 440s-3-11-8-21c-6-11-12-15-12-15l2 11 4 11 8 11 6 3zM546 434s4-22 1-29c-4-6-10-7-10-7l-2 3 2 16 5 13 4 4zM560 397s3 1 7 9 10 30 10 31l-3 1-14-22-2-20 2 1z"/><path fill="#d2a567" d="M465 423s7-2 7-4-8-8-8-12c1-2 8 1 8-1 1-1-7-13-5-16 3-3 9 13 9 13s4 7 3 11c-5 13-14 9-14 9zM482 407h11c1-2-9-10-9-10l-2-5 8-1c0-1-8-11-8-13s2 0 2 0l10 12c3 5 6 9 5 17-1 9-18 2-17 0zM531 390s-1-7 0-8l4-2s-6-4-9-4-3-1-4 1c-1 1 5 8 5 8l4 5z"/><path fill="#d2a567" d="M498 396s17 4 18 3l-14-15v-3c0-1 6-1 7 1l1 5c1 1 6 9 7 8s-1-11-1-12c1-1 7 6 8 7 2 1 11 8 12 5l1-6c0-2 4 9-1 11-4 1-9-2-9-2l-4-3-2-2s2 9-1 9l-6 1-7-1-9-6z"/><path fill="#78732e" d="M268 359c-1 0-14 1-24-1-5-1-8-9-7-25v-1l-1-1c-2-2-5-7-4-11 1-6 18-20 21-21l5 1 6-4 2 1v2l-2 2c-2 1-5 3-5 5l-1 3-1 5-2 3-4 6v1c0 2-1 4 1 5s8 0 13-3l6-4h1v-1c0 1-3 6-8 8l-5 3-7 2s-2 3 0 6c1 1 3 2 7 2 9 1 14-2 14-2l-6 19h1zm5-19s-5 2-14 2c-3-1-5-1-6-3-2-2-1-5-1-5v1l7-3 5-2c5-2 9-7 9-9-1-1-1 0-2 1l-6 4c-6 2-11 3-13 2v-5l4-5 2-3 1-6 1-3 4-5 3-2-1-2-2-2-7 4h1l-6-1c-2 1-20 16-21 22-1 4 3 9 4 11l1 1v1c0 6-1 25 8 26 10 2 23 1 24 1v-1l6-19v-1l-1 1z"/><path fill="#d2a567" d="M537 384s18 11 19 9c2-2-4-27-3-30 1-2 14 29 8 33-5 4-8 1-8 1l-9-4-7-9zM587 430l4 2h2l-5 1-1-3zM569 370l3 2 2 1h-3l-2-3zM564 362s2 0 4-1c3-2 3-3 3-4l-6-2-1-2h-5l5 9zM580 414l7 3 4 2h-10l-1-5zM550 332h5c1 1 0 4-1 6l-4 1-6-8 6 1zM525 309h5l6 2c1 1 3 12 2 14s-13-7-13-8l-6-9 6 1zM513 304s9 0 8-5c-1-6-5-8-5-8l-10 7 7 6zM490 294s2 1 5 0c2-1 9-10 14-11h7v8l-16 7h-6l-4-2v-2zM487 277c-2-5-6-7-8-7-1 1 5 6 6 13l1 13h3l1-3v-7l-1-3-1-2-1-4zM466 270c-7-8-19-13-20-13s15 9 18 14 3 14 5 15h3l1-3-1-3-2-4-2-3-2-3zM446 262c-8-8-24-11-36-11-13-1-19 1-17 7 1 7 7 10 18 10 10 0 13-1 18 1 6 2 11 5 13 7l-9-9-9-6s-1-3 6-2c8 1 17 6 20 12s2 10 2 11l3-1 1-3-1-5-5-7-4-4zM411 365c6 0 18-10 19-24 2-15-7-43-9-46s4-2 6 1 9 24 9 39-3 19-11 27c-8 7-14 6-14 6v-3zM430 407s3 3 6 2c5-2 13-6 13-14 0-5-6-9-6-11v-4l5 2 2 8s2 2 5 1c2-1 9-6 8-10-1-5-8-11-8-14v-4l5 1 2 7s2 2 5 2c3-1 8-7 7-9l-6-10v-3l2 1h7c4-2 8-4 8-7s-3-6-3-8v-2l2 1 4 4 1 5-2 4-5 6-5 2h-1l3 5-1 7-5 5-6 3v7l-4 7-7 5h-3v4l-5 7-9 6-6 1-3-5v-2z"/><path fill="#d2a567" d="M476 331s14 4 14-5c0-5-14-17-15-19v-4l7 6s9 2 11-3c3-5 1-8 0-8l2-1 4 1v8l-5 20s2 8-5 8c-6 1-13-3-13-3zM490 437s0-4-3-7l-10-6 10 13h3zM510 438l-9-12c-1-3-5-9-8-9-3-1 3 10 3 10l12 11h2zM529 438l-7-15c-2-3-5-12-8-15-4-2 0 4 0 4l4 12 7 10 4 4zM544 430l-2-17c-1-7-7-12-7-12l1 12 8 17zM573 437l-7-17-7-15 1 10 6 18 7 4zM598 406s-4-5-14-8c-10-4-19-5-19-5l1 2 4 3 10 6 14 3 4-1z"/><path fill="#202020" d="M494 412s0 8 4 14l17 16c2 2 4 13 7 21l5 19c1 2 4 6 2 6-2-1-4-3-5-6-2-3-1-3-1-8 0-4-7-27-10-29s-17-15-23-23c-5-8-4-10-4-10h8z"/><path fill="#202020" d="M517 468c-3-6-4-12-5-16-1-3-13-14-16-15l-8-1-14-14-1 2 17 17c4 4 7 14 10 21s2 5 2 9c0 3 3 5 5 5s3-1 2-1c-1-1-6-6-8-13-3-6-6-18-9-22l-1-1h4c3 0 15 11 16 14s0 4 5 15l8 14h1l-8-14zM498 396l11 6 5 1s1 16 8 25c6 9 11 12 11 12s0 17 5 29 6 27 5 29c-2 2-6-7-8-15l-7-23c-2-5-6-14-9-16s-1-2 1-1 6 7 9 17c3 9 4 18 6 18l2-3-3-16-4-16c-2-3-4-3-9-13-6-9-8-14-9-19l-1-5c-1 0-2 1-6-2-4-2-7-8-7-8z"/><path fill="#202020" d="m521 393 8 5 7 2s-1 15 5 24l12 16 3 24 2 30v38c-5-4-1-20-3-27-2-6-6-8-10-26-5-19-2-24-5-31s-7-7-7-7 5 1 8 7l5 29c4 18 10 27 10 27l-3-35c-2-13-1-23-4-28-2-5-7-9-10-15-3-7-4-19-6-23-1-3-2-2-4-3-7-2-8-7-8-7z"/><path fill="#202020" d="M537 384s4 6 11 9c7 4 10 3 11 4s-1 14 5 26c7 13 10 13 10 15l2 50c1 12 2 54-3 54s0-31-3-38c-2-7-2-5-5-11-2-6-2-28-6-42-3-10-6-11-6-11s5 2 7 11c2 8 3 36 6 40l7 14c1 4 0-52-2-56-1-3-12-24-13-35l-2-14c-1 0-5 0-10-5l-9-11z"/><path fill="#202020" d="M563 391c0-1 3 6 13 10 11 4 20 3 22 4 1 2 7 17 8 37 0 21-4 19-7 37-3 17-3 53-5 59l-3 6c-1 4 0 10-3 10s-3-5-3-8c0-2 3-12 3-22s-2-11-3-23c-2-11-2-48-3-52l-8-11s7 4 9 9c1 5 1 46 3 55 2 8 1-2 2-7s3-25 3-36-5-34-9-38l4 7 3 3 4 1-4-1-2-1c2 6 5 16 5 29 0 19-3 59 0 60 3 0 3-22 6-41s7-21 5-36c-1-15-5-31-8-33s-12-1-20-7c-8-5-13-10-12-11zM433 412s3 1 6-1c4-1 13-9 13-12v-6s0 2 3 2c2 0 10-5 10-9v-11h4c1-1 8-6 8-11s-4-9-4-9h6c2-1 9-5 9-9s-3-11-8-11c0 0 4 1 8-1 4-1 5-4 5-8s-8-14-9-15c-2-1 8 3 11-1s3-7 2-10c-1-2-3-2-3-2s5 1 11-2 11-7 13-7-8 6-9 9c0 2 3 4 8 8l1 1 12 2-8 1c7 4 14 11 21 19l3 2 5 1h-6l12 17 4 3 4 1-5 1 12 21s-11-19-25-34-16-17-17-16 10 15 16 24l11 21s-14-28-33-45-21-20-23-20-4 14-2 17 15 13 27 27 27 38 27 38-11-18-29-37-25-24-27-23-1 3-3 6-7 2-7 4l18 17c3 2 5 1 7 2l5 4-5-2h-5s13 16 15 16l6 2 7 4s-5-3-8-3c-3-1-4 0-4 1l9 13s-15-17-27-28c-12-10-17-12-18-12s0 3-3 5l-5 2 18 20 14 16-16-16c-8-8-13-11-14-10v5l16 20-19-22-3 4c-2 2-7 2-7 4s26 26 25 27c0 0-21-18-22-17l9 19-14-19c-1 1-1 3-4 5-3 3-7 2-7 3l17 21-18-17-1 2 5 14s-6-12-7-11c-2 0-2 3-4 4l-5 3c-1 1 3 3 4 6l3 9-4-9c-3-3-5-5-7-5l-3 2-2-4z"/><path fill="#202020" d="m598 405 6-1c1-1-2 0-7-6s-19-44-33-63c-24-32-46-46-46-46s27 15 47 45c21 30 26 54 32 60s11 7 11 9c-1 2-2 3-4 3l-7 1 1-2zM424 397l1 1c1 0 8-7 8-9l-6-4-3-7s2 5 4 6 6 2 7 1 11-9 11-12l-7-2c-4-2-3-7-3-7s2 4 5 5 6 1 7 0 8-10 7-13c0 0-4 0-7-2s-4-8-4-8 2 5 6 6 7-2 8-5c0-3 3-13-1-16 0 0-5 2-9 0s-5-7-5-7 3 5 8 5c4 1 6-2 6-3v-11c-1-4-4-3-5-8 0 0-1 2-6 2s-8-6-8-6 4 3 8 3 6-4 6-6c0-3-2-6-3-8l-2-6s-2 3-8 2c-5-1-6-5-6-5s4 3 7 3 5-2 5-4-1-6-8-12l-13-9s9 4 15 9 9 10 9 10 6 2 7 0 1-5-1-9-8-9-8-9 6 5 9 9c2 5 1 9 1 10s12 6 15 4 1-5-1-9l-4-6 5 7c2 3 4 6 3 7l-2 3 8 5c4 2 8 4 9 3l1-8-3-10s3 6 3 10v9l4 2h-7c-5-1-28-13-29-12s10 8 16 13 8 10 8 10l-8-5c-4-3-16-9-17-8s4 2 5 3l-4 6c0 2 17 14 17 15l-6 4-9-6 5 6c0 1-3 3-3 6 1 2 10 9 10 11 0 3-5 5-4 7l5 7-6-5c-2-2-5-6-6-5l-3 9c0 2 4 4 5 8 1 5-1 9-1 9l-7-7c-1-1-2 0-3 2s-5 7-4 8c0 2 6 3 6 7 0 5-4 9-4 9l-7-9-9 9c0 1 5 5 4 6-1 2-4 0-6 1l-6 3-2-3z"/><path fill="#202020" d="m518 289 2-3c1-1 6-6 4-7h-11c-4 0-6 1-17-8 0 0-34-24-85-27-17 0-24 5-25 8 0 1 4-6 21-6 7 0 59 4 87 26 1 1 10 9 18 8h10l-3 5-1 4zM427 296c0-2-3-6-9-12-7-6-28-15-29-15s22 10 28 16l10 11z"/><path fill="#d2a567" d="m427 334-5-6-9-4s7 0 10 3 4 7 4 7zM425 314s-2-2-8-4l-8-2s6-2 10 0c5 2 6 6 6 6zM421 298s-1-3-7-5l-10-2s6-2 12 0c6 3 5 7 5 7zM414 288s-1-2-12-5l-15-3s15-1 19 1 8 7 8 7zM395 277l-13-2h-16s18-3 23-2 6 4 6 4z"/><path fill="#f8c83c" d="M335 501s3 6 10 6 11 9 11 9l-7 7-17 1-5-9 8-14z"/><path fill="#977c2e" d="m335 501 2 3c2 2 4 3 8 3 3 0 5 3 7 5a28 28 0 0 1 4 4l-7 6-16 1-6-8 9-14h-1l-9 14 6 9 17-1 8-7h-1l-3-5c-2-2-5-5-8-5s-6-1-7-3a15 15 0 0 1-2-2l-1-1v1z"/><path fill="#f8c83c" d="M336 495c0-1-5-12-9-14s1 4 0 6l-1 5c0 1 3 5 2 7s8-4 8-4z"/><path fill="#977c2e" d="m336 495-1-3-3-6-5-5-1-1-1 1v1l1 3 1 1v1l-1 5v1l1 2 1 3-1 1v1h1c2 0 3-2 5-3l3-2h-1l-3 2a64 64 0 0 1-4 2v1-1 1-1 1-1 1l1-2-1-4-2-2 2-5v-1l-1-3-1-1v-1h-1 1-1 1l1 1 5 6a41 41 0 0 1 3 7h1-1 1z"/><path fill="#f8c83c" d="M333 512s3 1 5 0c2 0 4-3 4-3"/><path fill="#977c2e" d="m332 512 5 1h1l5-3-1-1-4 3h-1a8 8 0 0 1-4-1l-1 1z"/><path fill="#f8c83c" d="M330 507s9-6 8-10-2-4-4-3l-7 6 3 7z"/><path fill="#977c2e" d="M330 507v1l4-4 3-3 2-4-2-3-2-1h-1l-2 1a38 38 0 0 0-5 5l-1 1 1 2 2 6h1v-1l-1-3a29 29 0 0 1-2-4s0 0 1 0a27 27 0 0 1 6-6h1l2 1 1 2-2 3-4 5-2 1-1 1h1z"/><path fill="#f8c83c" d="M323 512s2 5 5 5 7-3 7-5l-5-6c-2-1-7 2-7 2v4z"/><path fill="#977c2e" d="M323 512h-1l2 3 4 2a11 11 0 0 0 7-3l1-2-2-3-4-3h-5l-2 1-1 5h1l1-4h-1 1l5-2 1 1 3 2 2 3-1 1c-1 2-4 3-6 3s-3-1-3-2l-1-1-1-1z"/><path fill="#f8c83c" d="m331 506-8 4c-2 0-6-5-4-5l5-2 3-3c1-1 3 1 4 2v4z"/><path fill="#977c2e" d="m331 506-1 1a21 21 0 0 1-7 3l-1-1-2-2-1-2 5-1 2-2v-1h3l1 2 1 1v2h1v-2l-1-2-2-2h-3l-2 3-5 1-1 1v2l2 2 3 2 5-2 2-1 2-2h-1z"/><path fill="#f8c83c" d="M325 510s-9 12-13 12c-4-1 2-18 2-18l4 2c3 1 6 2 7 4z"/><path fill="#977c2e" d="m325 510-1 1a72 72 0 0 1-9 9l-2 1h-1l-1-3a43 43 0 0 1 3-12v-2l4 2 4 2 3 2h1l-3-3-5-2-3-1h-1v-1l-1 1s-3 9-3 14l1 3 1 1h1l4-2 9-10h-1z"/><path fill="#f8c83c" d="M309 501s12 2 12 4c1 2-5 4-9 4-3 0-3-8-3-8z"/><path fill="#977c2e" d="m309 501 2 1a74 74 0 0 1 10 3l-1 1c-2 2-5 3-8 3l-1-1-1-4-1-2v-1h-1l1 4 1 3 2 2a17 17 0 0 0 9-3l1-2-1-1-7-2-5-1-1-1v1h1z"/><path fill="#202220" d="M279 519s2 6 7 6 10-5 10-5l-12-5-5 4z"/><path fill="#4b4139" d="m279 519 1 3c2 2 3 3 6 3 6 0 10-5 10-5l-12-5-5 4 5-4 12 5v-1l-1 1c-1 2-5 5-9 5-2 0-4-2-5-3a10 10 0 0 1-1-3h-1z"/><path fill="#202220" d="M283 517s2 5 8 5 13-6 13-6l-11-8-10 9z"/><path fill="#4b4139" d="m283 517-1 1s3 4 9 4h1c7 0 12-5 12-5v-1l-11-8-11 9v1l1-1v1l10-10 10 9 1-1h-1v1c-1 1-6 5-11 5h-1c-3 0-5-2-6-3a8 8 0 0 1-2-2v1-1z"/><path fill="#4b4139" d="M284 518s3 3 6 3l8-1-4 2h-6l-2-1-2-2v-1z"/><path fill="#202220" d="M291 513s3 7 10 6 6-4 6-4l-7-11-9 8z"/><path fill="#4b4139" d="m291 513 2 3a8 8 0 0 0 8 3l6-2v-3l-7-10-9 8v1h1l8-8 7 10s-1 3-6 4h-1c-3 0-5-2-6-3l-2-3v-1h-1l1 1-1-1z"/><path fill="#4b4139" d="M292 514s4 5 7 4l6-1v1l-2 1h-6l-2-2-3-3zM280 521s3 3 6 3l7-2v1l-3 1-4 1h-2l-2-2-1-1-1-1z"/><path fill="#f8c83c" d="M308 500c3 0 9 8 9 12s-2 10-5 10-9-6-11-9c-1-3-3-5-2-7s9-6 9-6z"/><path fill="#977c2e" d="M308 500v1l3 1 4 5 1 5-1 6-1 2-2 1-2-1c-3-2-7-5-8-8l-3-5 1-1 1-1 5-3 2-1v-1 1-1a110 110 0 0 0-9 6v1l2 6 5 6 3 2 3 1 3-1 2-9-3-8-3-3-3-1z"/><path fill="#f8c83c" d="M279 501s-5-4-7-2-1 9 0 10c2 1 7-3 7-3v-5z"/><path fill="#977c2e" d="m279 501-2-2-3-1-2 1-1 5v3l1 2 1 1 2-1 5-3-1-5h-1l1 5v-1l-1 1-2 2-3 1-1-2v-3l1-4 1-1 3 1 1 1h1-1 1z"/><path fill="#f8c83c" d="M278 506s-6 0-6 3 3 6 4 7l6-3-4-7z"/><path fill="#977c2e" d="M278 506v-1l-3 1-2 1-1 2 1 4 2 3h3l4-3h1l-4-8h-1v1l3 7h1l-3 1a30 30 0 0 1-3 1l-2-2-2-4 1-1 3-2a29 29 0 0 1 2 0z"/><path fill="#f8c83c" d="M281 511s-7 2-7 4 3 6 5 6 4-4 5-5l-3-5z"/><path fill="#977c2e" d="M281 511v-1a23 23 0 0 0-6 3l-1 2 2 4 1 2 2 1 2-1 2-2 1-2v-2l-3-5v1h-1l1 1a31 31 0 0 1 2 3v2l-2 3-2 1-1-1a9 9 0 0 1-3-5l1-1 3-2 1-1h1-1 1z"/><path fill="#f8c83c" d="M284 492s-1-2-4 0c-3 1-6 3-5 8 0 4 2 7 2 7l10-4-3-11z"/><path fill="#977c2e" d="m284 492-2-1h-2l-4 3a8 8 0 0 0-2 6l2 7h1l10-3-3-12h-1l3 11-9 3v1-1a21 21 0 0 1-2-7l2-5 3-2h4-1 1z"/><path fill="#f8c83c" d="M285 500s-9 2-9 6c0 3 2 6 4 7 2 0 9-7 9-7l-4-6z"/><path fill="#977c2e" d="M285 500v-1l-5 2-3 2-1 2v1l1 4 3 3h1l2-1 7-5v-1l-5-7v1h-1l5 7v-1l-1 1a50 50 0 0 1-6 5h-2l-2-2-1-4 1-2 4-3 2-1h1-1 1z"/><path fill="#f8c83c" d="m292 513-9 5c-1 0-4-4-4-7 1-3 6-5 9-6 2 0 4 8 4 8z"/><path fill="#977c2e" d="M292 513v-1l-5 3a70 70 0 0 1-4 3l-1-1-2-5v-1l3-3 5-2 3 4v3h1v-1 1l-1-4-1-3-1-1h-2l-4 2c-2 1-4 2-4 4v1l1 4 1 2 2 1 1-1 5-3 3-2z"/><path fill="#f8c83c" d="M299 483s-3-2-7-2-9 7-10 10c0 4 0 10 2 11s12-8 12-8l3-11z"/><path fill="#977c2e" d="M299 483s-2-2-6-2h-1c-3 0-5 2-7 4l-3 6v8l2 3h1l3-1 9-6 3-12h-1l-3 11-2 1a94 94 0 0 1-8 6h-2l-1-2a20 20 0 0 1 0-7l3-6c1-2 3-4 6-4a13 13 0 0 1 5 1h1l1 1v-1z"/><path fill="#f8c83c" d="M289 508c-3-1-6-6-6-9 1-3 7-8 11-7s3 9 3 9-5 7-8 7z"/><path fill="#977c2e" d="M289 508v-1l-4-2-1-5 1-3 4-3 4-2h1l1 1 1 7v1h1-1v1l-3 3-4 2v1l6-3 2-3v-7l-1-2a3 3 0 0 0-3-2l-6 3-3 3-1 2v1c0 2 0 4 2 5 1 2 2 3 4 3z"/><path fill="#f8c83c" d="M300 507s-2 4-5 6c-4 1-6 0-8-3s1-4 3-5c1-2 6-3 6-3l4 5z"/><path fill="#977c2e" d="M300 507h-1l-4 5-3 1-2-1-2-2-1-2 1-1 2-2 4-2h1l1-1 4 5-4-6v1h-3l-4 2-2 2-1 2 1 2 2 3 3 1 3-1c4-2 5-6 5-6z"/><path fill="#f8c83c" d="M294 496s-3 4-1 7c2 4 4 5 6 5 3 1 5 0 7-3 2-2 6-4 5-7 0-3-1-6-3-7s-8 0-14 5z"/><path fill="#977c2e" d="M294 496s-2 2-2 5v2l4 4a8 8 0 0 0 5 2c2 0 4-1 6-4l3-3 2-3v-1c-1-3-2-6-4-7h-2c-3 0-8 1-12 5l1 1c4-4 8-5 11-5h2c1 1 3 3 3 6v1l-2 3-3 3c-2 2-3 3-5 3h-1l-4-1-3-4v-2l1-3v-1h1l-1-1z"/><path fill="#202220" d="M305 481s-4-1-7 0-5 6-5 9l1 8 7-3 3-4c0-1-2-2-2-5 0-5 3-5 3-5z"/><path fill="#4b4139" d="M305 481s-4-1-6 1c-3 1-5 4-6 6v4l1-5c1-3 3-6 5-6h6z"/><path fill="#202020" d="m453 526-1-20-53 17 20 21z"/><path fill="#d2a567" d="m353 492-4-4-5-3h-4l-1 1 1 2 4 6 9 4 2 3 2 1-4-10z"/><path fill="#d2a567" d="m357 514-17-5 1-4 3-3 3-2h8l2 5 3 3 2 4 1 3z"/><path fill="#d2a567" d="m363 515 3-1 2-2v-27l-13-16-3 9 4 16 3 11z"/><path fill="#ab6d29" d="M353 476v8c2 5 4 17 8 26l-4-7s-8-17-7-30c2-12 3 3 3 3zM363 487l-3 7v8s0-4 3-5 3 9 3 10l2-17-5-3zM365 522s-8 0-16-4c-8-3-13-6-12-8 0-2 14 0 16 1l9 3h4l6-2 1 7-8 3zM338 519s4 3 2 4l-8 1 15 4 3-3-12-6z"/><path fill="#d2a567" d="M334 515c1-1 1 2 7 3l8-1 2 1 3 1-3 4-10-3-5-3-2-2z"/><path fill="#ab6d29" d="M369 490v18l3 4 3-9v-10z"/><path fill="#4d2a15" d="m354 493-5-8-6-11 4-7 5 7s-2 4-1 9l3 10z"/><path fill="#d2a567" d="M322 521s2-3 7-3h8l10 5 2 3-18-2-9-3z"/><path fill="#8f4620" d="M370 489v14c0 3 3 7 2 9 0 1-1 2-3 2h-7l5-1-2-9-1-8-3 2c0 1 1-13 3-15s6 6 6 6z"/><path fill="#ab6d29" d="m336 518-2-3c0-1 2 5 12 5h15l-2 4-8 6-3 1 1-1h-1l-1-7-8-4-3-1z"/><path fill="#8f4620" d="M354 493s-12-12-15-20c-4-8-2-19-2-19l11 14s-1 3-1 7l7 18z"/><path fill="#ab6d29" d="M347 537c-1-1-1-4 1-7 7-8 24-15 24-15l1 11-23 11h-3z"/><path fill="#8f4620" d="m348 529 5-5c0-2-3-2-8-3l-9-3s6 5 9 5 2 2 2 3c-1 1 1 3 1 3zM378 531l-4-8-2-8-3 3-7 2s7 0 7 3c0 2-11 3-11 4 0 0 9-2 8 0 0 2-4 2-9 4l-8 4-2 1c0 1 2 2 5 2l10-2 14-6 2 1z"/><path fill="#ab6d29" d="M378 531s-4-1-7-18l-2-20 7 5 6 10-4 23z"/><path fill="#8f4620" d="M380 504s-3 9-3 14l1 13c2 4 7 8 7 8l2-2 1-7 1-13-9-13z"/><path fill="#202020" d="M389 516s2 23-4 24c-3 0-7-9-7-9s5 8 7 8c4-2 2-24 2-24l2 1zM378 531l-3-3s0 2-12 7c-12 4-16 2-16 2s4 3 16-1c12-3 11-4 13-5h2z"/><path fill="#ab6d29" d="m355 502 4 6 4 8 1-1-4-8-8-11 3 6z"/><path fill="#8f4620" d="M348 530s1-4 0-5l-11-1-15-3s6 4 11 5l12 3 2 1h1z"/><path fill="#202020" d="m348 530-1-2c-1-1-2 1-12-2-11-3-13-5-13-5s3 3 12 6l14 3z"/><path fill="#ab6d29" d="M353 500s-8 1-11 3l-5 7h5s-1-4 1-7 6-2 10-3z"/><path fill="#8f4620" d="M338 486s3 4 6 5l8 4c2 2 3 7 3 7s-11-5-13-7l-4-9z"/><path fill="#8f4620" d="m349 488-4-3h-6l-1 1 4 6 2-1s-6-4-4-5c3-2 9 2 9 2z"/><path fill="#202020" d="m440 444 28 40-53 13-28 3-13-10 4-15z"/><path fill="#f8c83c" d="m423 568 6-3 7-4 2 8-7 5h-5l-3-2v-4z"/><path fill="#977c2e" d="M423 568h1l5-2 7-5 1 8-6 5h-5l-3-3 1-3h-1 1-1l-1 4 4 2v1l5-1h1l6-4v-1l-1-8-1-1-3 2a75 75 0 0 1-8 5l-2 1z"/><path fill="#f8c83c" d="M415 569h3l5-1 2 4-1 3-6 3-5-2v-7h2z"/><path fill="#977c2e" d="M415 569h-1 1l3 1h1l3-1h1v-1l1 1v2l1 2v-1l-2 3-5 3-4-3v-5l1-1h-1 1l-1-1-1 1v7l5 3 6-4 2-2v-1l-1-2a13 13 0 0 0-1-2l-1-1-1 1h-1l-2 1h-1a68 68 0 0 1-3-1v1-1 1-1 1-1 1l-1-1 1 1z"/><path fill="#f8c83c" d="m459 566-4-4-8-6v17h9l4-5-1-2z"/><path fill="#977c2e" d="m459 566-3-4-5-4-3-3h-1v19h9l4-6v-1l-1-1h-1l1 2-4 5h-7v-17h-1l8 7 2 2 1 1h1z"/><path fill="#f8c83c" d="M415 569s-2-2-5-2c-4 1-7 4-8 6 0 2 0 9 2 11 2 1 4 2 8 1s23-13 23-13l-5 1c-2 1-5-1-5-1s-2 3-5 4c-4 0-4-2-5-3v-4z"/><path fill="#977c2e" d="M415 569c0-1-1-2-4-2h-1l-5 2-3 4v7l2 4 5 2 3-1 6-2 17-11h1-1l-5 1h-1a8 8 0 0 1-3-1h-1c-1 1-3 3-6 3h-2l-1-2-1-3v-1h-1v1l1 3 1 2 3 1h1c3 0 5-3 6-3l-1-1v1l4 1 1-1 5-1-3 1a431 431 0 0 1-23 12l-5-2-1-3a26 26 0 0 1 0-7l2-3a10 10 0 0 1 6-2h2l1 1h1-1 1z"/><path fill="#202220" d="M396 590s-3-5 0-6c4-2 6 0 8 0s1-6 1-7l-3-4c-1-1-12 1-12 8 0 8 6 9 6 9z"/><path fill="#f8c83c" d="m427 575-4 2-4 2 1 6 8 2 5-4v-6l-6-2z"/><path fill="#977c2e" d="M427 575h-1l-3 1-3 2-2 1 2 6 8 2h1l5-4v-7l-7-1 6 2v5l-5 4-8-2-1-5h2l3-2 2-1 2-1h-1z"/><path fill="#f8c83c" d="m465 571-3-3c-1-2-3-2-3-2l-5 6v3l4 3h4l4-2-1-5z"/><path fill="#977c2e" d="M465 571h1l-1-1-2-2c-1-2-3-2-4-2h-1l-4 5-1 4 1 1 4 2 3 1h1l4-3v-5h-1v4l-4 3-2-1-5-2 1-3-1-1 1 1 2-3a94 94 0 0 1 2-2l3 1 3 3z"/><path fill="#f8c83c" d="m437 568-5 3-5 4 4 5h5l9-6-1-6h-7z"/><path fill="#977c2e" d="M437 568s-4 1-5 3l-3 2-2 1v1l1 2 3 3 5 1 9-7v-6h-8v1h7v5l-8 6-5-1v1h1l-2-3a31 31 0 0 1-2-2l4-3 3-3 2-1v1-1z"/><path fill="#f8c83c" d="m472 576-2-3c-2-2-4-2-5-2l-4 5-1 2 4 4 5 1 4-4-1-3z"/><path fill="#977c2e" d="M472 576v-1l-2-3-4-2h-1v1l-3 3-2 2v2l3 4 6 1h1l4-4-2-4v1h-1l2 3-4 3-5-1-3-3v-2 1l2-3 1-2h1v-1h1l3 2a12 12 0 0 1 2 3h1z"/><path fill="#f8c83c" d="m457 582 4 1 1 2h1s1 4 5 7c0 0 5 2 8 0 2-1 2 1 2 1l7-9s0-2-1-2c0 0 1-6-4-7s-8 1-8 1-4 6-6 5l-3-1-2-4h-4l-3-4-3-2-2-3-7 5s0 2-4 5-7 3-7 3-1 6-5 5-7-6-7-6-4 0-6 2c-2 3-3 4-3 7s2 6 4 7c1 2 5 5 11 2 5-2 3-7 3-7l3-1 9-7"/><path fill="#977c2e" d="m457 582 4 1h-1l2 2 1 1 1-1h-1s0 4 5 8h8l1-1h1v1l8-9v-1l-2-2v1-2l-1-3c0-1-1-2-3-2a15 15 0 0 0-9 0s0 1 0 1a21 21 0 0 1-4 4l-1 1-2-2a38 38 0 0 1-3-3h-1l-2-1-2-2-1-1v-1h-1l-2-1h-1l-1-2-1-1h-1l-6 5h-1s0 2-4 5a17 17 0 0 1-5 2h-1v1l-1 3-3 1h-1c-2 0-4-1-5-3l-1-2h-1l-1-1-5 3-2 3-1 4 1 4 2 4c1 1 4 3 8 3l4-1c3-2 4-4 4-6l-1-2v1l3-2 9-6v-1l-9 6-3 2v1-1 1-1 2c0 1-1 3-4 5l-3 1c-4 0-6-2-7-3l-2-3-1-4 1-3 2-3 4-3h1-1l2 3 6 3h1l4-2 1-3h-1c1 0 3 0 7-3 4-2 4-5 4-5l7-4v-1h-1l2 3 3 2h1l3 4 3 1h1v-1l-1 1 3 3 3 2 2-1 4-5a13 13 0 0 1 8 0l3 2v4h1l1 1v1-1l-7 10v-1l-1-1-1 1h-3a15 15 0 0 1-4 0h-1a13 13 0 0 1-4-7l-1-1v1l-1-1-1-1v-1l-4-1-1 1h1z"/><path fill="#f8c83c" d="M449 546v11s1 11-1 14-10 2-12 0 0-12 0-12l13-13z"/><path fill="#977c2e" d="M449 546h-1v14l1 4-1 7-6 2-3-1-2-2-1-2v-9l13-13h-1 1-1l-13 13v9l1 3 2 2 4 1c3 0 5-1 6-3l2-7-1-7v-12l-1 1h1z"/><path fill="#202220" d="M414 609s-4-5-2-8c2-4 4-2 5-2v-6l-5-5c-2 0-9 5-7 11 1 8 9 10 9 10zM480 603s12 5 13-8c1-7-5-11-7-11s-3 0-5 3-4 5-3 6 5-1 6 3c3 7-4 7-4 7z"/><path fill="#f8c83c" d="M440 581s-2 3 3 3c2 1 3 0 3-1 2-1 2-3 2-3s-1 5 4 5 5-5 5-5"/><path fill="#977c2e" d="M439 581v1l1 2 3 1h1l3-1 1-3v-1h-1v1l1 2 4 2 4-2 1-3v-1l-1 1v3l-4 1-3-1-1-2v-1h-1v1l-1 2-2 1h-1l-3-1v-3l-1 1z"/><path fill="#4b4139" d="M414 609s-10-2-10-12c0-6 7-9 7-9s-6 3-6 9c-1 10 9 12 9 12zM396 590s-6-1-6-9 12-8 12-8-13 1-12 8c1 9 6 9 6 9zM480 603l5 1c3 0 7-1 8-6s1-7-3-11c-2-3-4-3-4-3s2 0 4 3c2 2 4 6 2 11-1 5-7 6-8 5h-4z"/><path fill="#4d2a15" d="m537 557-9 6-17-4-39-38-13-13 2-17z"/><path fill="#4d2a15" d="m558 545-44-33-55-42 2 20 63 58 20 10 11-3 5-6-2-4z"/><path fill="#803f1d" d="M460 498s22 25 39 37c16 13 32 27 36 25s2-4 2-4l-77-63v5z"/><path fill="#4d2a15" d="m506 568-9-5-47-48 3-9 6 2 55 54z"/><path fill="#202020" d="M558 545s-6 13-18 10-80-67-80-67v7s68 62 82 65c13 2 24-9 22-10l-6-5z"/><path fill="#803f1d" d="M452 508s22 28 34 38c11 10 21 19 26 18s-3-7-3-7l-33-32-17-17s-6-3-7 0z"/><path fill="#202020" d="M458 508s55 56 60 58c9 2 22-7 22-7l-5-3-1 2s-2 5-14 3c-12-3-60-55-60-55l-2 2z"/><path fill="#4d2a15" d="m493 562-6 4-4-3-5-1-19-23-4-7-2-11z"/><path fill="#202020" d="M515 563s-5 7-11 5c-7-1-11-6-11-6l-38-37-1-6s42 44 50 46c5 2 9-5 9-5l2 3z"/><path fill="#202020" d="M494 561s-2 6-8 5c-5-1-7-3-7-3l-24-28v-7s24 34 30 36c6 1 7-4 7-4l2 1z"/><path fill="#b07229" d="m469 488 24 21 11 2-6 1c-1 1 11 11 13 11l12 2-7 1c0 2 10 10 12 10l14 2c0 1-10-1-10 2 1 2 17 12 16 13 0 2-19-12-20-12l-2 6c-1 1 0-6-1-9-1-2-12-11-13-10s0 6-2 6c-1 0 1-6-1-8l-12-11-2 5c-1 1-1-5-2-7s-25-23-24-25z"/><path fill="#4d2a15" d="M429 551s1 9-3 10c-4 2-12-16-12-16l-1-16 11 11 5 11zM460 547v-5l-1-5-1-9-2-6-2-3h-2l-6 4-2 6 3 11 3 9 4 2 6-4z"/><path fill="#4d2a15" d="m452 562-1-12-7-18-2-6-6-2-4 4 1 7 8 16c3 4 9 12 11 11z"/><path fill="#202020" d="M446 525c2 1 4 6 5 9l4 14c-1 2-4 2-4 2s7 6 9 6v-9c-1-1-3 0-3-2-1-1-4-10-4-15l1-10c1-1 5 11 5 17l2 3-2-12-3-8 1-6v-3l4 1c1 0 2-1 3-7l-1-21-24 32 7 9z"/><path fill="#202020" d="M446 522s-1 9 2 18l5 10-1 12-8-24-4-11-3-1 9-4z"/><path fill="#4d2a15" d="m443 568 1-3-1-9-9-17-9-9-5-7-1 14s7 15 11 19c5 4 12 13 13 12z"/><path fill="#202020" d="m408 529 2 6v5l6 13c4 5 7 11 9 10 3-2 4-6 4-6 0-1-3 4-5 4l-8-24-4-3-4-5zM434 548l-6-11-5-6-2-7s2 4 6 6c3 2 5 3 7 2v16z"/><path fill="#5c3a1d" d="m418 537 5 10 9 10-9-10-5-10z"/><path fill="#202020" d="M435 531s2-5 3-5l4-1s-2 0-4-3l-5-4 2 7v6zM434 532l8 20c2 5 2 13 2 13l-3-10-8-18v-5z"/><path fill="#4d2a15" d="m443 522 2-21-2-8-10-22s0 3-3 3c-2 0-9-4-11-7l1 10-2 8 19 36 6 1z"/><path fill="#8b441f" d="M405 537s3 3 5 3 1-7-1-11-26-35-29-37c-4-2 25 45 25 45z"/><path fill="#8b441f" d="M421 524c0 2 2 11-2 12-5 2-31-34-35-38 0 0-16-10-16-13-1-3 17 3 17 3l34 33 2 3z"/><path fill="#5c3a1d" d="m421 524 1 6c0 3-1 6-3 6s-4-2-8-5l-27-33-2-2a176 176 0 0 1-14-11h1l10 2 6 2v-1 1l34 32 1 1 1 2-2-3-34-33a87 87 0 0 0-17-4v1l2 3 14 10 17 21 10 12c3 3 6 5 8 5s3-3 3-6l-1-6z"/><path fill="#202020" d="m405 537-3-9-2-6c0-2-18-28-20-30l-8-5v8s6 11 15 21l18 21z"/><path fill="#4d2a15" d="M434 532c2-1 1-10 0-12l-16-35-5 2-8-7-5-5 1 11v6l12 21 21 19zM451 513l3-5-2-15-10-35s-2 1-5-1l-5-4 3 20 10 29 1 9 5 2z"/><path fill="#202020" d="m419 521-13-16-6-11h-7c-4-1-8-7-8-7s-3 6 12 21c17 16 22 13 22 13z"/><path fill="#8b441f" d="M444 525c4-2 4-20 0-32s-11-22-11-22 8 19 10 27 0 14-1 13c-2 0-2-5-5-12-3-8-6-10-6-10s12 32 9 31c-3 0-20-35-20-36-1-1-2 1-2 1s15 44 26 40z"/><path fill="#4d2a15" d="m453 439 7 15 2 16 1 14s0 26-3 27-5-3-5-3l-6-30-6-31 2-2 1-5h5l2-1z"/><path fill="#8b441f" d="M434 532c2 0 0-7 0-7s-3 3-5 1l-5-12-1-5s-3 6-5 6c-3 0-17-23-17-23l-1 2s19 40 34 38z"/><path fill="#202020" d="M424 514s3-5 2-10-8-19-8-19h-5l-8-5s3 10 8 17l11 17zM436 506s-2-12-8-23c-5-12-9-16-9-16v13s5 2 9 9l8 17zM451 485s-1-13-3-21l-4-18 1-1h2c3 1 4 8 4 8v-12l-1-1h-5s1 3-1 4c-1 2-2-1-2-1l-1 2 1 7v6l4 13c3 5 5 14 5 14zM463 484s2-20-2-32-8-15-8-15l-2 2s7 10 8 20l4 25zM444 493l-5-24-4-14-4-3 2 13v5l5 9 6 14z"/><path fill="#904720" d="M454 517c4 0 0-22-1-27l-11-32s11 37 10 39c-1 3-5-11-6-11s8 25 5 26c-4 0-5-6-5-6v6s2 5 8 5z"/><path fill="#904720" d="M458 506c3 0 0-20-2-29l-7-28s5 13 8 27c3 15 5 33 2 34-3 0-4-3-4-3l-1-3s2 2 4 2z"/><path fill="#312317" d="M423 530c1 2 0 9-3 8-4 0-11-7-12-11 0 0 8 9 11 9 2 0 2-9 2-11l2 5z"/><path fill="#d2a567" d="M443 433s4 3 8 0c4-2 7-7 7-10l-3-9c-2-3 4 3 4 8 0 6 0 16-9 18s-5 0-5 0l-2-7z"/><path fill="#8f4620" d="M435 415s6 10 8 18c3 9 2 12 1 12-2 0-2-1-2-3l-7-27z"/><path fill="#1e2121" d="m334 427 38 55 49-53-31-32z"/><path fill="#4d2a15" d="m383 393-3 9 5 15 8 7 9 6 3-6 1-9h3l6 2 3-6 7-11-1-4-2-3-10-17-3 6-3 2-6-3-7 9-8-5z"/><path fill="#5c3818" d="M402 431s2-2 2-6v-23l-5-15c-1 0 5 11 4 24-1 14 0 17-3 19-3 1 2 1 2 1zM404 408s7 9 10 6 1-15-1-19l-4-11 2-2 3 12c1 5 5 19 1 21s-11-5-11-5v-2z"/><path fill="#8f4620" d="M384 414s2-3 5-3l3 1 3 7 4 8 4 4-2 2-3 1-10-5-2-4-2-11z"/><path fill="#d2a567" d="M399 493c-3 2-10-1-14-5l-24-24-3-12 8 2 14-6 2-4 17-9 9-5 21-1 4-9s7 11 8 16 1 20-1 21-8-5-9-5 5 21 0 21c-5 1-13-7-13-7s3 18-1 19c-4 0-14-5-18-10 0 0 5 16 0 18z"/><path fill="#8f4620" d="m395 469 4 6c1 2 0 11-1 12-1 4-6-4-8-10l-8-14c0-2 13 6 13 6zM434 422s7 30 4 31-13-10-14-11l-15-23-3-3 1-2 6 2 21 6z"/><path fill="#8f4620" d="M384 479c-2 1-5-4-6-5l-11-12-8-9-3-4 2-4h4l20 18c2 2 3 15 2 16zM413 479c-1 1-14-9-19-16l-13-18c-2-3-2-7-2-7l4 1s32 39 30 40zM418 465c-1 1-7-3-10-7-4-5-2-11-2-11s12 18 12 18zM425 464c-2 1-9-8-15-18l-7-10-5-1-1-1 4-1 2-3 4-5 15 31s4 7 3 8z"/><path fill="#ab6d29" d="M385 488c0 1 0 2-4 2s-26-12-36-28l-11-18 4-5 35 39 12 10z"/><path fill="#8f4620" d="M385 488c1 2-2 2-4 2-2-1-11-4-25-19-13-16-19-27-19-27l-1-7 5-1 23 36 21 16z"/><path fill="#4d2a15" d="M408 473s-7-6-11-11c-5-6-14-18-14-21 0-2 4-2 4-2v-7l1-2 7 3 8 10 3 4s6 14 5 15-9-8-10-7c-1 2 9 17 7 18zM395 469s2 4 1 6c-1 3-2 4-5-1-4-6-8-12-9-11 0 0 1 8-1 8s-7-7-11-12l-9-14 1-8-1-9 1 4 2 2 13 15 3-2 8 15 7 7zM346 447s10 17 19 27 20 14 20 14l-30-36-9-5zM423 457c-1 0-7-6-11-12s-7-14-7-18l2-13s10 11 12 16 6 12 5 13c-1 0-8-5-9-4 0 2 9 17 8 18zM434 446c-1 1-6-6-8-9l-1-12-5-11v-12h5l7 9s3 6 3 14c-1 8 1 20-1 21zM353 475c-9-11-15-22-15-22l-3-10 1 1s3 12 17 26c15 14 18 15 18 15s3 8 1 11c0 0-10-9-19-21z"/><path fill="#202020" d="M368 492s-12-11-22-23l-16-24 5-4s8 19 14 26l19 25zM385 488l-21-22c-7-8-11-16-11-16l5 2s3 7 8 13l19 23zM382 463l-11-16-7-13s10 12 13 13 3 0 3 0-1 4 0 7l2 9zM386 424s1 7 0 11-3 4-3 4l6 8 9 7-7-10c-2-4-5-7-3-11 1-3 7 3 9 4l9 10s-3-9-6-12l-14-11z"/><path fill="#202020" d="m417 445-6-16c-3-6-6-19-6-19v11c-1 4-2 10-4 11l-6 1 3 1s3 0 5-2l3-5c2 1 4 7 5 9l6 9z"/><path fill="#202020" d="M405 410s7 9 10 5c4-4 2-15 2-15s4 2 6 1v-5s9 12 12 19c4 8 6 21 6 21s-6-11-10-21c-3-9-7-14-8-13s-2 8-1 11l5 13 4 12-6-9-6-6-6-5c-2-1-6-3-6-1l-1-4-1-3z"/><path fill="#171717" d="m380 446 7 13 8 10-10-11c-3-4-5-12-5-12z"/><path fill="#8f4620" d="M428 448c-1 1-4-1-5 1 0 1 2 6 5 8 2 3 4 3 4 3 1-1 0-3-1-6v-6h-3z"/><path fill="#d2a567" d="m340 396-4 2-5 11 1 19 8 11c3 4 13 15 15 15 3-1 5-8 6-13v-11l7 8c4 5 7 9 9 9 2-1 8-12 8-14l-14-36-7-3-24 2z"/><path fill="#ab6d29" d="m372 425 4 13c2 5 0 8 1 9 1 0 8-10 9-15l-2-23c-2-14 0-18 0-18l-4-3-7 15-1 22zM347 417l3 18c1 4 3 12 5 12 1 0 6-12 6-16 0 0-3-6-3-21l-1-15-10 22z"/><path fill="#45392d" d="M328 389s-11 16-11 25 2 7 4 16c3 8 4 20 4 21 1 1 2-1 3-2v-60z"/><path fill="#ab6d29" d="M328 391s-10 15-9 24c1 8 2 8 5 15 3 8 3 20 3 20l6-3c4-3 7-8 7-8l-3-7-3-7-3-4 1-15 3-11v-4h-7z"/><path fill="#dbad6c" d="m381 417-7-2c-2-1-2-4-2-4l1-3 8 9z"/><path fill="#d2a567" d="M330 393s-7 15-6 26c1 10 6 24 7 24v-35l4-10v-6l-5 1z"/><path fill="#8f4620" d="m347 396 1 7c0 2-5 4-6 7l-4 10 4-7c2-2 3-4 4-2v8l-3 7v9l2-8c0-2 2-3 2-3l4 8 1-7c0-3 4-7 5-7s2-1-2-3c-1-1 0-15 1-16s7-1 6-3c0-2-5-7-6-8s-9 8-9 8z"/><path fill="#dbad6c" d="m381 427-6-1c-2 0-2-2-2-2l1-2 4 2 3 3z"/><path fill="#8f4620" d="m335 429-2 5-1 6-2-12-1-8c-1-1-2 2-2 2l1-8 1-7-4 2-3 5s1-5 3-7l7-10 1-5h4s4 3 4 5-4 3-4 4c0 0-3-1-4 12-1 12 2 11 2 16zM369 398v8l-4 7-1 9s0-4 2-5l2-4 3 6 3 9v-4h3l4 3-3-4c-2-3-3-2-4-5l-1-8c1-1 2 1 3 2l6 6-2-4v-11c0-3-1-7 1-8l1-6c-1-1-13 9-13 9z"/><path fill="#1e2121" d="m408 384 2 12 4 14-6-13c-2-6-3-13-5-14s-3 3-3 6c0 2 1 12 3 15l-4-8-3-8-1 7 4 10-3-4-3-2s0 5 2 7l4 6-5-3-1-3s0 8 2 12l5 10s-4-3-7-10c-3-6-4-26-3-29l4-7c2-3 4-17 4-17s4 13 6 16l4 3zM377 380l3 5 2 4-8 7c-5 3-10 7-12 5l-1-3 9-7 6-8 1-3zM338 393s0 8 4 8c3 0 13-11 14-11l1-4v-3s-11 12-15 12c-3 0-4-2-4-2zM338 382l-1 8v2s-7 3-9 1v-6l6-1c2 0 4-4 4-4zM412 371l5 11 5 11-7-8-4-3 1-4v-7z"/><path fill="#dbad6c" d="M327 387h4l3-1 3-4s-1 5 0 9 3 4 4 4 5-1 8-4l8-7v10c2 5 5 5 8 2l10-11 2-3 4-4 4-19-2-3-5 2-6-2-2-2-3 5-4 3h-2l-4 1-2-4-1-3-2-1-9 9h-5l-5 8-4 5-3 8 1 2z"/><path fill="#8f4620" d="M369 367s1 5-2 13l-5 14s8-5 13-15c4-9 3-21 3-21l-9 9zM380 358s1 2 0 9l-3 15 3 4c1 2 4 6 6 6s5-4 7-9l6-10c1-1 1 1 1 1l3 6c2 2 5 5 6 4 2-1 3-3 3-5l-5-14-6-15-3-5-11 1-7 12z"/><path fill="#ab6d29" d="M398 345s3 6 3 13l-2 13v-13l-2-10 1-3z"/><path fill="#4d2a15" d="M412 371v8c-1 3-5-1-7-10l-4-16-3-8 5-1 9 27zM387 388s9-6 11-22c0-8-5-21-5-21s0 13-4 22l-6 15 3-3 3-3v5l-2 7zM378 358s0 4-5 8l-11 7s5-5 7-10c2-4 1-7 1-7l-3 4-6 2 2-4 1-3 4-9 5 8 5 4z"/><path fill="#1e2121" d="m409 339 3 14v18l-7-11-2-10-4-4-3-1s3-1 3-4v-3l5 1h5zM387 374s5-7 6-17c2-9 0-12 0-12l-4-2-4-6-1 10c-1 6-6 11-6 11s3 1 5 0c6-3 5-9 5-9s1 1 1 8l-2 17z"/><path fill="#8f4620" d="m323 387 7-13 8-12 2 1c2 0 7-2 9-6l4-9c0-1-1 7 3 11s3 4 5 3l-2 10-2 12-1-12c-2-2-3 1-4 4l-4 6 4-9v-4l-3 1-3 3 3-4 3-6 2-4-1-3-5 5-5 4-3 10-4 10-2 1 3-8 4-13h-3l-7 11c-3 5-3 11-4 11h-4z"/><path fill="#874f20" d="M412 333c0 1 0 4-3 6-4 1-9-1-9-1l-1-5h13z"/><path fill="#b27129" d="m341 345-3 8-5 8s2 2 5 2 4-17 4-17v-1h-1z"/><path fill="#dbad6c" d="M386 335s-2 24-8 23c-7 0-10-11-10-11s0 15-8 15c-4 0-8-12-7-14 0 0-2 8-6 12-8 6-13 3-13 2s7-8 8-17l3-2c2-3 3-6 5-5s11-4 11-4l5-6s0 2 4-1c4-2 5-6 5-6l10 8 1 6z"/><path fill="#b27129" d="m360 313 10 14 2-2 2 4c-2 4-5 9-2 14v-7c2-3 3-5 4-4l3 21c1 0 4-10 4-17 0-6 1-1 2 1 0 1 6 10 11 9 5-2 4-10 4-12l-4-14-22-14-2 6c-1 4-12 1-12 1z"/><path fill="#8f4620" d="m392 311 3 7c2 5 2 23 0 23-3 0-9-3-10-6s1-11-1-13l-5-10 1-7 5-2 7 8z"/><path fill="#4d2a15" d="m390 306 10 14 8 12 4 1c0 1-5 6-11 2-4-2-2-7-6-16-4-10-12-13-12-13l3-3 4 3z"/><path fill="#1e2121" d="M385 298s8 6 11 12l9 15c3 6 7 8 7 8h-4l-6-6-8-15-9-7 6 8 4 11-4-7c-3-6-10-12-10-11-1 1 3 7 5 10l5 12-7-10c-3-6-4-5-6-7l-5-6s4 1 7-2l5-5z"/><path fill="#8f4620" d="m364 313 8 1h4l2 5-3 8-2-6-9-8z"/><path fill="#b27129" d="M366 328s2 6 1 14c-2 8-6 16-7 16-2 0-1-9-2-14v-1l-2 5 2-9-1-3 6-7 3-1z"/><path fill="#8f4620" d="M356 334c-2 2-4 1-6 2-3 1-3 4-3 4l2-1c1 0 2 0 0 4-1 4-8 11-7 11 0 0 7-5 9-9l3-6c0-2 3-3 3-3s2 0 3 2l2 10 3-10v-10h-2c-2 0-5-4-5-4s0 7-2 10z"/><path fill="#dbad6c" d="M385 292s2 6-2 10l-5 2-7-2-14-6-7-3-4-1 1-4 11 1 11 4 4 2h10l2-2v-1z"/><path fill="#ab6d29" d="M385 292c1 1-1 4-2 5s-3 1-7 0l-13-5-12-2c-4 0-2-2-2-2s8-1 16 2 10 5 14 4c5 0 6-2 6-2z"/><path fill="#4d2a15" d="M347 288h3l2-1v2l-5 1v-2z"/><path fill="#dbad6c" d="M374 305s5 5 4 9l-10-4-15-7-8-2-1-1 2-3v-3l11 1 10 3 7 7zM364 312s9 11 7 15l-21-13-7 12-17-8 15-13 2-2 7 1 12 4 2 4z"/><path fill="#ab6d29" d="m359 295 12 4 11 3s-3 3-8 3l-7-4c-2-2-9-4-9-4l1-2z"/><path fill="#4d2a15" d="m346 291 9 3 4 1 1-1s1 3-2 3l-7-2c-3-2-5 0-5 0v-4z"/><path fill="#ab6d29" d="m375 311 3 3-6 2-7-2c-2-1-4-5-9-7l-10-3-5-1 4-1 11 2 11 3 6 3 2 1zM355 318l2 10-1 5-3 2-3-1-1-2s1-2 0-4-7-4-7-4 2-5 5-6 1-4 1-4l7 4z"/><path fill="#4d2a15" d="m344 299 5 2 8 2 4-1-2 1 9 3 7 5-7-3-11-3c-7-2-14-1-16-2s1 0 2-1l1-3z"/><path fill="#ab6d29" d="M370 325s2 2 0 3c-3 1-9 1-12-2l-2-5-9-6c-2-2 1-2 1-2l14 6 8 6z"/><path fill="#4d2a15" d="M370 325s-5-6-18-12l4-1h-7l-3-1-8-3-2 2-2 3h9c4 1 3 2 3 4s-5 7-4 7c0 0 3-5 6-4 4 0 5 2 5 2l-1-3-3-4 12 4 9 6z"/><path fill="#dbad6c" d="M348 315s11 3 10 13c0 11-8 9-9 5s1 2 4 2c3-1 4-4 3-8 0-4-1-6-3-9l-5-3z"/><path fill="#6c3f18" d="M305 289s1 1-2 8c-3 8-5 11-9 15-8 9-12 9-11 13s4 3 5 3l15-21 4-13-1-4-1-1z"/><path fill="#dbad6c" d="M341 273s4 7 3 19-17 22-17 22l-23 16h-13l-3-2-2-4 3-4 9-9 5-7 2-9v-6l2 3 1 6-1 7 6-4 8-3s2-1 4-5l3-14-1-6h1l3 6 1 10 4-4 3-5 2-7z"/><path fill="#904720" d="M344 334s1 1 1 5c-1 5-4 7-6 7v-6l-5-4-6-2 1-1 7-3 8 4z"/><path fill="#ab6d29" d="M340 334s1 1 4 0c2 0 3-4 2-6-1-1-1 4-2 5s-4-4-6-5c-2 0-6 1-7 3h4l2 1h2l1 2z"/><path fill="#904720" d="M306 317h7l11-3 6-5c2-2 11-8 12-19 1-10-1-17-1-17s13 14 2 30c-7 10-14 13-14 13s12-3 14 0c1 3-1 7-1 8 0 0 7 2 8 5 0 2-8-2-15-1-6 2-9 6-9 6s-1-2-7-2l-11 2c-3 0-14-2-16-5l7-8c3-5 7-4 7-4z"/><path fill="#ab6d29" d="m333 288 6-8 2-7s1 4-2 9l-6 7v-1z"/><path fill="#904720" d="M331 277s4 16 0 23c-4 6-23 14-23 14s14-7 19-16c4-9 4-16 4-16v-5z"/><path fill="#1e2121" d="M313 317s6 0 9-2l8-6s-4 4-6 4-2-2-1-4c0 0-1 3-4 5l-6 3zM327 298s5-5 5-16c-1-11-5-9-5-9s4 2 3 10l-3 15zM333 299s5-2 7-5 2-10 2-10 0 6-2 8l-7 7zM329 333s3-5 7-4c4 2 4 5 4 5s-2-3-5-3l-6 2zM319 323l13-3 11-4s-5 5-11 8c-6 4-11 4-11 4s12-5 13-7c0 0-11 3-15 2z"/><path fill="#fff" d="M305 310a10 10-22 0 1-11 16"/><path fill="#f16e16" d="M305 312a9 8-22 0 1-10 13"/><path d="M301 316a3 3 0 1 1-3 5"/><path fill="#d5d3ca" d="m302 320-2 1-1-1 2-1 1 1z"/><path fill="#ab6d29" d="M307 305s6-6 7-13c2-7 1-12 1-12l3 4 1 5-2 9s4 0 6-3c2-2 5-15 4-22 0 0 2 3 0 13-2 11-4 12-12 16-4 3-9 7-14 16l-8 11 6-10c3-7 6-10 6-10l2-4z"/><path fill="#904720" d="m305 309 2-11-2-9s3-1 4 8c0 9-2 9-4 12z"/><path fill="#4d2a15" d="M316 300s3-7 2-11c0-4-3-9-3-9s4 1 4 9c1 8-1 8-3 11z"/><path fill="#ab6d29" d="m290 329-1-5c0-2 0-2 5-7l9-12c1-3 5-10 2-16 0 0 2 9-3 15-5 7-8 11-12 14s-5 4-4 6l1 4 3 1z"/><path fill="#6c4119" d="m339 346 2-1-1-6-7-4-7-1 5 4c1 1 4 0 6 2 2 1 2 6 2 6z"/><path fill="#6c4119" d="M339 346s5-2 6-7l-1-5 3 3 2-1s-3 10-10 10z"/><path fill="#bf802d" d="m300 345 3 3 3 3 14-4 4-4-4-6h-9l-11 8z"/><path fill="#f9c83a" d="m333 340-3-3-2-3c-2-2-11 0-11 0l-5 1s-2 1-5 1l-10-4-6-3-6-1-5 5s-1 2 1 2l-3 1s-10 5-12 15c-1 10 17 25 24 18 0 0-10-8-8-14s6-10 14-10c8-1 9-2 12-4 4-3 10-4 15 1s-18 9-18 9l2 4s28-10 26-15z"/><path fill="#8f4620" d="m333 340-2-4-1 1h1a6 6 0 0 0-5-4h-9l-6 1-3 1h-1a50 50 0 0 1-9-3h-1 1l-7-3-2-1-4-1-2 1-4 4v3l1 1h1v-1 1-1 1-1l-1 1h1v-1l-1 1 1-1h-1v1l1-1h-1 1-1 1-1 1-1 1-1 1-1 1-3l-6 4c-2 3-6 7-6 12v2c0 4 2 9 6 12 4 4 9 6 13 6 2 0 4 0 5-2h1l-1-1-4-4-4-7 1-2 4-7 9-3 8-1 5-3 6-2c2 0 5 1 7 3l1 1-1 1-4 3a64 64 0 0 1-12 4h-2l3 5a173 173 0 0 0 22-10l3-2 2-3-1-1-1 1-1 2-5 4a117 117 0 0 1-17 7h-2v1h1l-3-4v1a98 98 0 0 0 16-5l2-2 1-2-1-2c-2-2-5-3-8-3l-7 2-4 3-8 1c-4 0-7 1-9 3l-6 8v2c0 3 2 6 4 8 2 3 4 4 5 4l-1-1c-1 2-2 2-4 2-4 0-8-2-12-6-4-3-6-8-6-11v-1c1-5 4-9 6-12a31 31 0 0 1 5-3v-1h3l1-1h-1v-1h-1v-1l2-2a40 40 0 0 1 3-3l3 1a58 58 0 0 1 3 1l6 3a82 82 0 0 0 11 3l4-1 6-1h-1 1a78 78 0 0 1 9 1l2 1v1h1-1 1-1 1l2 4 1-1-1 1 1-1z"/><path fill="#fcf3d8" d="M281 364s-12-3-11-13 11-14 12-15c2 0 2-5 3-6 2-1 6 0 8 2l5 3s-20 8-20 20c-1 8 3 9 3 9z"/><path fill="#fdeaaf" d="M333 339h-2c-2-4-7-5-11-5l-12 2h-7c-4 0-13-7-14-6l-3 4h-4c-1 0 3-6 6-6 10 0 17 6 22 6s6-2 12-2 12 2 13 7z"/><path fill="#513625" d="m302 347 8-3 7-2-7 4-7 2-1-1z"/><path fill="#f9c83a" d="M286 370c-1 0-5 0-11-4s-8-11-8-11-2-7 5-14c6-7 7-5 8-5l-1 1-5 5-3 4-3 5v5l3 5 9 6 6 3z"/><path fill="#8b5122" d="M282 331v-1 1-1 1-1l-1 1h1v-1l-1 1 1-1h-1v1l1-1h-1 1-1 1-1 1l-1-1v1h1l-1-1v1-1 1-1 1l-2 2-1 2 2 2 2 1 3-1v-1l-1-1-2 1h-1l-1-1 1-1 1-2h1v-1l-1-1c-1 0 0 0 0 0h-1v1l1 1z"/><path fill="#f9c83a" d="m301 340-14 5 9-1 5 1 3-1c5-2 16-6 17-1 1 4-15 7-15 7v2l13-3 6-4 2-3-6-5h-9l-4 2-7 1z"/><path fill="#8f4620" d="M282 360c1 3 3 7 5 8h1c0 1-2 2-7 1-4-1-11-3-15-15l1 3 2 4 4 5 7 4 4 1 4-1 2-1-4-4-5-8 1 3z"/><path fill="#fcca3d" d="M327 479v5h-3l1-6zM310 355l-6-5-1 1 4 6z"/><path fill="#816c2a" d="m326 490-6-3-8-3-1 2h1a36 36 0 0 1 14 5v-1zM326 479h-10l-5 3h1a14 14 0 0 1 9-2 68 68 0 0 1 5 0v-1zM325 469l-9 5-6 5v1l2-2a66 66 0 0 1 10-6l3-2v-1zM319 460l-1 4-3 3-6 6-3 3 1 1 5-5a268 268 0 0 0 6-7l2-5h-1zM311 455v3l-1 5a76 76 0 0 1-5 11l-1 2h1l6-12 1-6v-3h-1zM303 454v11l-3 6-1 4h1l4-10 1-7-1-4h-1zM297 454v12l-2 9h1v-3l2-6 1-12h-2zM291 455v2a56 56 0 0 1 0 9l-1 9h1a79 79 0 0 1 1-9l1-5-1-6h-1zM286 456v1l-1 8-2 6-1 4h1l3-10 1-8v-1h-1zM281 456v2c0 3 0 6-2 8l-5 5-2 2-1 1 1 1s6-4 8-8c2-3 2-6 2-9v-2h-1zM277 455v1l-3 6a24 24 0 0 1-7 6h-1l1 1 8-6 3-8h-1zM272 452v1l-2 2-1 2a29 29 0 0 1-6 4v1l3-1c2 0 2-2 3-3l3-3 1-2-1-1zM269 449l-1 1a64 64 0 0 1-5 5l-1 1v1l3-2 5-5-1-1zM268 447h-1l-3 2-3 2v1l2-1 6-4h-1zM267 444l-3 2a35 35 0 0 1-3 1v1h2l5-3-1-1zM266 439l-2 2-3 1v1l4-1 2-2-1-1zM266 431l-2 2-3 4v1h1v-1l3-3 1-1 1-1-1-1zM305 385h6v-1h-1v1-1 1-1 1-1 1-1 1-1 1-1 1-1 1-1 1-1 1-1h-5v1zM305 381h3l4-3 1-1h1v-1l-2 1-3 2-3 1h-1v1zM305 376l2-1 5-3 3-1v-1h-2l-5 3-3 2v1zM303 371l5-4 6-4-1-1-5 4-6 4 1 1zM299 365l12-8-1-1-12 8 1 1zM294 360l6-5 6-4-1-1-5 4-7 5 1 1zM290 356l5-4a277 277 0 0 1 7-4v-1l-3 1-10 7 1 1z"/><path fill="#78732e" d="m299 345 1 1 9 9c3 4 6 9 6 15v1c-1 7-4 13-9 18-7 9-17 16-26 23-4 4-8 8-10 12a22 22 0 0 0-5 13l4 12a16 16 0 0 0 14 7l21-2c6 0 11 2 16 7 4 5 6 13 6 21a88 88 0 0 1-3 20v1l1 1s3-11 3-22c0-8-1-16-6-22-5-5-11-7-17-7l-21 2h-2c-5 0-8-3-11-6s-3-8-4-12v-1c0-5 3-10 8-15 6-8 16-15 25-23 8-7 16-16 17-27v-1c0-7-4-13-8-18l-8-8-1 1z"/><path fill="#f9c83a" d="m299 344 2 1h-2v-1z"/><path fill="#8f4620" d="M301 345h-3l1-1 2 1z"/><path fill="#977c2e" d="m322 503 2-1v2h-1l-1-1z"/><path fill="#a8ac71" d="M290 355h-2l2 2zM294 360l-1-2v2z"/><path fill="#78732e" d="M299 364h-2l2 2zM303 370h-1l1 2zM304 376v-1 1zM306 381l-2-2v3zM304 385l2-1-2-2v3zM261 439l1-3-2 1v1l1 1z"/><path fill="#fff" d="M261 442h-1v2l1-1v-1z"/><path fill="#78732e" d="M260 448v-1 3z"/><path fill="#fff" d="M262 453v-2h-2v2zM262 457v-1 1zM263 463v-3 3z"/><path fill="#a8ac71" d="m268 469-2-1v1zM272 475l-2-2v1l2 1zM308 477l-2-1 1 2c1 1 1-1 1-1z"/><path fill="#fff" d="m311 480-1-2-1 1 1 1h1z"/><path fill="#a8ac71" d="m311 481-1 1 2 1-1-2zM311 486l1-2h-1v2z"/><path fill="#fff" d="M310 491v-1h-1v1zM256 302s2 0 0 2l1-2h-1z"/><path fill="url(#d)" d="M215 368a26 38 0 1 1-52 0 26 38 0 1 1 52 0z" transform="matrix(-.19367 -.24745 -.31972 .27904 702 534)"/></g></svg>