<svg xmlns="http://www.w3.org/2000/svg" width="1025" height="1025" fill="none"><path fill="url(#a)" d="M342 0h341v1015H342z"/><path fill="url(#b)" d="M0 0h342v1015H0z"/><path fill="url(#c)" d="M683 0h342v1015H683z"/><ellipse cx="202.7" cy="214.7" fill="#FDFCE5" rx="23.4" ry="23.5"/><circle cx="911.9" cy="381.6" r="24.3" fill="#FDFCE5"/><ellipse cx="822.3" cy="214.7" fill="#FDFCE5" rx="23.4" ry="23.5"/><circle cx="113.1" cy="381.6" r="24.3" fill="#FDFCE5"/><path fill="url(#d)" stroke="#052A46" stroke-width="15" d="m158 601 1 34h15v-80c0-8 1-19 5-28 5-8 12-14 24-14s20 6 24 14c4 9 6 20 5 28v80h15a509 509 0 0 1 5-58c3-7 6-11 11-14 4-4 11-6 21-6 8 0 14 6 18 17 5 10 6 23 6 31v1c3 36-8 57-22 69a70 70 0 0 1-46 15h-8v156h-58V690h-8c-12 1-31-3-46-15-14-12-25-33-22-69v-1c0-8 2-21 6-31 4-11 10-17 18-17 10 0 17 2 22 6 4 3 7 7 10 14 2 6 4 14 4 24Z"/><path fill="url(#e)" stroke="#012D48" stroke-width="15" d="M704 851v8h78V642c0-24-15-47-39-47s-39 23-39 47v209Z"/><path fill="url(#f)" stroke="#012D48" stroke-width="15" d="M789 851v8h77V579c0-15-4-29-10-39-6-11-16-18-29-18-12 0-22 7-28 18-7 10-10 24-10 39v272Z"/><path fill="url(#g)" stroke="#012D48" stroke-width="15" d="M868 851v8h77V642c0-24-15-47-39-47s-38 23-38 47v209Z"/><path stroke="#012D48" stroke-width="15" d="M424 640v-42M390 748l27-28"/><path fill="#CAE9DC" stroke="#012D48" stroke-width="15" d="M404 679c2 55 43 58 64 53v-87c-22-12-66-21-64 34Z"/><path stroke="#012D48" stroke-width="15" d="m608 642 2-42M636 745l-27-28"/><path fill="#249F9A" stroke="#012D48" stroke-width="15" d="M621 679c-2 55-42 58-62 53v-87c22-12 64-21 62 34Z"/><path stroke="#012D48" stroke-width="15" d="m555 572 28-27M515 545v-38M426 811h41M560 811h38M473 571l-28-27"/><path fill="url(#h)" stroke="#012D48" stroke-width="15" d="M461 849v8h104V593c0-30-21-55-52-55-30 0-52 25-52 55v256Z"/><path fill="#F7F6DD" d="M0 854h1025v171H0z"/><path stroke="#02284B" stroke-width="15" d="M0 846h1025M0 981h1025M0 915h1025"/><path fill="url(#i)" stroke="#012D48" stroke-width="15" d="m442 220-18 106h177l-18-106c-5-21-27-63-70-63-44 0-66 42-71 63Z"/><path fill="url(#j)" stroke="#012D48" stroke-width="15" d="m442 220-18 106h177l-18-106c-5-21-27-63-70-63-44 0-66 42-71 63Z"/><path fill="url(#k)" stroke="#012D48" stroke-width="15" d="M826 324H203c0 48 13 146 115 146h392c103 0 116-98 116-146Z"/><path stroke="#00294D" stroke-width="15" d="m243 361 44 48 47-48 42 48 46-48 44 48 46-48 43 48 46-48 44 48 46-48 44 48 47-48"/><defs><linearGradient id="a" x1="512.5" x2="512.5" y1="0" y2="1014.9" gradientUnits="userSpaceOnUse"><stop stop-color="#FBF5D9"/><stop offset="1" stop-color="#FDF9E3"/></linearGradient><linearGradient id="b" x1="170.8" x2="170.8" y1="0" y2="1014.9" gradientUnits="userSpaceOnUse"><stop stop-color="#099487"/><stop offset="1" stop-color="#057672"/></linearGradient><linearGradient id="c" x1="854.2" x2="854.2" y1="0" y2="1014.9" gradientUnits="userSpaceOnUse"><stop stop-color="#DB4932"/><stop offset="1" stop-color="#D93F2E"/></linearGradient><linearGradient id="d" x1="318.2" x2="87.9" y1="616" y2="618.6" gradientUnits="userSpaceOnUse"><stop stop-color="#F9F5E0"/><stop offset=".3" stop-color="#FCF7DD"/><stop offset=".4" stop-color="#FCF7DD"/><stop offset=".6" stop-color="#FCF7DD"/><stop offset=".7" stop-color="#FCF7DD"/><stop offset=".9" stop-color="#FCF7DD"/></linearGradient><linearGradient id="e" x1="712.9" x2="776.5" y1="725.9" y2="725.9" gradientUnits="userSpaceOnUse"><stop offset=".5" stop-color="#CEEBDD"/><stop offset=".5" stop-color="#249E99"/></linearGradient><linearGradient id="f" x1="798.2" x2="860.2" y1="688.6" y2="688.6" gradientUnits="userSpaceOnUse"><stop offset=".5" stop-color="#CEEBDD"/><stop offset=".5" stop-color="#249E99"/></linearGradient><linearGradient id="g" x1="877" x2="938.9" y1="725.9" y2="725.9" gradientUnits="userSpaceOnUse"><stop offset=".5" stop-color="#CEEBDD"/><stop offset=".5" stop-color="#249E99"/></linearGradient><linearGradient id="h" x1="471.6" x2="560.3" y1="696.1" y2="696.1" gradientUnits="userSpaceOnUse"><stop offset=".5" stop-color="#CEEBDD"/><stop offset=".5" stop-color="#249E99"/></linearGradient><linearGradient id="i" x1="426.3" x2="598.7" y1="326.4" y2="329" gradientUnits="userSpaceOnUse"><stop stop-color="#FCFADF"/><stop offset=".5" stop-color="#FCF2BA"/><stop offset=".5" stop-color="#FACA0C"/><stop offset=".7" stop-color="#F2BB09"/><stop offset=".7" stop-color="#D98C00"/><stop offset="1" stop-color="#D98C00"/></linearGradient><linearGradient id="j" x1="515.1" x2="515.1" y1="154.4" y2="326.4" gradientUnits="userSpaceOnUse"><stop stop-color="#04958A" stop-opacity="0"/><stop offset=".6" stop-color="#04958A" stop-opacity="0"/><stop offset=".6" stop-color="#04958A"/><stop offset=".8" stop-color="#069287"/><stop offset=".8" stop-color="#04958A" stop-opacity="0"/><stop offset="1" stop-color="#04958A" stop-opacity="0"/></linearGradient><linearGradient id="k" x1="505" x2="505" y1="323.8" y2="467.1" gradientUnits="userSpaceOnUse"><stop offset=".5" stop-color="#FAF8E2"/><stop offset=".5" stop-color="#FCE667"/><stop offset=".8" stop-color="#FCE563"/><stop offset=".8" stop-color="#CA8804"/><stop offset="1" stop-color="#C88400"/></linearGradient></defs></svg>